<?xml version="1.0" standalone="no"?>
<!DOCTYPE svg PUBLIC "-//W3C//DTD SVG 20010904//EN"
 "http://www.w3.org/TR/2001/REC-SVG-20010904/DTD/svg10.dtd">
<svg version="1.0" xmlns="http://www.w3.org/2000/svg"
 width="896.000000pt" height="1088.000000pt" viewBox="0 0 896.000000 1088.000000"
 preserveAspectRatio="xMidYMid meet">

<g transform="translate(0.000000,1088.000000) scale(0.100000,-0.100000)"
fill="#000000" stroke="none">
<path d="M720 9781 c0 -10 -9 -21 -20 -24 -11 -3 -20 -10 -20 -16 0 -17 27
-13 34 4 5 13 42 15 278 13 l273 -3 10 -32 c5 -20 16 -33 26 -33 15 0 17 -19
21 -162 4 -133 2 -165 -9 -175 -9 -7 -11 -13 -4 -18 6 -3 11 -17 11 -31 0 -21
-4 -25 -22 -22 -16 2 -26 -4 -35 -22 -11 -23 -11 -23 -12 -4 -1 29 -45 28 -49
-2 -3 -20 -7 -20 -199 -16 -165 4 -195 2 -188 -9 6 -11 5 -12 -6 -1 -7 6 -26
12 -41 12 -22 0 -31 7 -40 28 -6 15 -10 33 -9 40 1 6 -7 12 -18 12 -20 0 -21
7 -23 197 -3 179 -5 198 -20 201 -16 3 -18 -7 -18 -97 l0 -101 -320 0 -320 0
0 -63 c0 -37 5 -69 12 -76 10 -11 10 -14 1 -18 -10 -4 -13 -85 -13 -359 l0
-354 48 0 c26 0 63 -3 82 -6 l35 -6 -2 -136 c-1 -128 -3 -136 -22 -144 -21 -7
-21 -5 -21 112 l0 120 -29 0 c-16 0 -42 3 -60 6 l-31 6 0 -401 c0 -394 1 -401
20 -401 16 0 20 7 20 33 0 17 3 42 6 55 7 24 24 30 24 8 0 -21 15 -23 158 -20
125 3 132 2 132 -16 0 -13 -7 -20 -20 -20 -19 0 -20 -7 -20 -120 0 -113 -1
-120 -20 -120 -17 0 -20 7 -20 39 l0 39 -140 0 -140 1 0 -639 0 -640 61 0 c56
0 60 2 54 20 -5 17 -2 20 24 20 20 0 31 5 31 14 0 13 28 26 58 26 6 0 12 -9
12 -20 0 -13 -7 -20 -20 -20 -21 0 -29 -33 -11 -44 16 -10 41 5 41 25 0 10 5
19 10 19 6 0 10 -9 10 -20 0 -20 24 -26 89 -20 15 1 31 -7 41 -20 17 -22 17
-22 38 -4 29 25 82 26 82 2 0 -13 8 -18 26 -18 24 0 26 3 20 31 -3 17 -6 35
-6 40 0 5 -18 9 -40 9 -33 0 -40 3 -40 20 0 15 7 20 29 20 49 0 91 -12 91 -26
0 -11 28 -14 141 -14 140 0 140 0 137 -22 -2 -19 2 -23 22 -23 18 0 25 5 25
20 0 19 8 20 133 23 126 2 132 2 132 -17 0 -11 5 -23 10 -26 6 -4 8 -10 5 -15
-8 -13 36 -23 48 -11 6 6 15 11 19 11 4 0 8 -106 8 -235 0 -228 1 -235 20
-235 17 0 20 -7 20 -53 0 -46 4 -56 31 -80 17 -15 35 -27 39 -27 4 0 10 -9 13
-20 3 -11 11 -19 19 -18 9 2 14 -10 16 -34 3 -36 5 -38 38 -38 26 0 34 -4 34
-17 0 -10 12 -29 25 -42 22 -21 25 -31 25 -101 0 -81 5 -90 49 -90 10 0 22
-14 30 -35 7 -19 16 -33 21 -30 17 11 23 -20 22 -112 -1 -92 -1 -93 22 -93 19
0 23 4 19 20 -4 14 0 20 10 20 12 0 17 -13 19 -57 3 -49 6 -58 23 -61 51 -7
63 -13 68 -33 5 -17 11 -20 31 -15 16 4 30 1 40 -9 8 -8 22 -15 30 -15 9 0 18
-11 22 -25 5 -20 13 -25 36 -25 21 0 31 -6 35 -20 3 -11 13 -20 23 -20 13 0
20 -11 25 -37 4 -21 12 -41 18 -45 8 -5 13 -59 15 -164 3 -144 5 -157 23 -161
10 -3 19 -14 19 -24 0 -15 7 -19 34 -19 25 0 35 -5 39 -20 3 -11 12 -20 20
-20 8 0 17 -7 21 -15 3 -8 15 -15 26 -15 18 0 20 -6 20 -60 0 -48 3 -60 16
-60 9 0 18 -9 21 -20 3 -11 13 -20 23 -20 11 0 20 -9 22 -21 2 -17 11 -22 46
-25 40 -4 42 -3 42 25 0 25 -3 28 -25 23 -20 -3 -25 0 -25 17 0 12 -6 21 -14
21 -10 0 -17 16 -22 45 -3 26 -12 45 -19 45 -7 0 -16 16 -19 35 -5 26 -12 35
-26 35 -13 0 -20 7 -20 20 0 16 -7 20 -34 20 -28 0 -35 4 -40 25 -4 16 -13 25
-26 25 -19 0 -20 7 -20 195 l0 195 -40 0 c-33 0 -40 3 -40 20 0 13 -7 20 -20
20 -13 0 -20 7 -20 20 0 16 -7 20 -35 20 -28 0 -35 4 -35 20 0 15 -7 20 -25
20 -18 0 -25 5 -25 20 0 18 -7 20 -60 20 -53 0 -60 2 -60 20 0 13 -7 20 -20
20 -19 0 -20 7 -20 120 l0 120 -34 0 c-28 0 -35 5 -40 25 -4 16 -11 22 -21 19
-10 -4 -15 0 -15 10 0 9 -11 21 -25 26 -23 9 -25 15 -25 65 0 42 -3 55 -15 55
-8 0 -16 5 -16 10 -1 6 -3 15 -4 20 -1 6 -3 21 -4 35 -1 18 -7 25 -21 25 -13
0 -20 7 -20 20 0 13 -7 20 -20 20 -16 0 -20 7 -20 35 0 28 -4 35 -20 35 -13 0
-20 7 -20 19 0 10 -9 21 -20 24 -11 3 -20 12 -20 20 0 8 -9 17 -20 20 -17 4
-20 14 -20 61 0 43 -3 56 -15 56 -13 0 -15 43 -17 313 -5 528 -5 600 -6 2065
-2 1385 -2 1422 -21 1422 -10 0 -21 9 -24 20 -3 11 -12 20 -21 20 -9 0 -16 8
-16 20 0 20 -7 20 -280 20 -268 0 -280 -1 -280 -19z m-643 -315 c-15 -12 -16
-14 -2 -20 22 -8 47 4 41 20 -4 11 11 14 74 14 73 0 80 -2 80 -20 0 -15 7 -20
29 -20 24 0 28 3 24 20 -4 14 0 20 11 20 9 0 16 -4 16 -10 0 -5 8 -10 18 -11
10 0 12 -3 5 -6 -8 -3 -13 -23 -13 -49 l0 -44 -141 0 c-77 0 -149 -4 -159 -10
-24 -13 -28 1 -22 73 4 54 6 57 31 57 24 -1 25 -2 8 -14z m401 -3 c-2 -10 4
-19 15 -21 12 -2 17 3 17 17 0 19 6 21 65 21 l65 0 0 -59 c0 -69 0 -69 -122
-63 -78 4 -78 4 -78 32 0 49 12 90 27 90 8 0 13 -8 11 -17z m-238 -234 c0 -22
-5 -29 -20 -29 -16 0 -20 7 -20 34 0 29 3 33 20 29 14 -4 20 -14 20 -34z
m-115 -44 c0 -30 -39 -27 -43 3 -3 20 0 23 20 20 15 -2 23 -10 23 -23z m115
-204 c0 -10 -7 -22 -16 -25 -23 -9 -24 -8 -24 19 0 18 5 25 20 25 13 0 20 -7
20 -19z m115 -24 c9 -60 3 -91 -17 -95 -15 -3 -18 4 -18 47 0 44 -3 51 -19 51
-11 0 -23 5 -26 10 -11 18 5 30 40 30 32 0 34 -2 40 -43z m-115 -52 c0 -18 -5
-25 -20 -25 -15 0 -20 7 -20 25 0 18 5 25 20 25 15 0 20 -7 20 -25z m400 -415
c0 -153 -1 -160 -20 -160 -19 0 -20 7 -20 135 l0 135 -160 0 c-152 0 -160 1
-160 19 0 25 17 28 208 30 l152 1 0 -160z m-453 -32 c-2 -35 -3 -7 -3 62 0 69
1 97 3 63 2 -35 2 -91 0 -125z m70 150 c-3 -7 -5 -2 -5 12 0 14 2 19 5 13 2
-7 2 -19 0 -25z m1023 -111 c0 -126 -1 -133 -20 -134 -21 -2 -24 17 -25 187 0
78 1 80 26 80 18 0 19 -8 19 -133z m-76 17 c8 -21 -1 -34 -23 -34 -24 0 -30 8
-24 31 6 23 38 25 47 3z m-174 -14 c0 -11 -4 -20 -10 -20 -5 0 -10 9 -10 20 0
11 5 20 10 20 6 0 10 -9 10 -20z m-650 -255 c12 -4 15 -25 13 -122 -3 -172 -6
-183 -13 -48 l-6 120 -2 -116 c-2 -106 -4 -117 -21 -122 -11 -3 -22 -2 -25 1
-3 3 -6 59 -6 124 l0 118 -140 0 c-139 0 -140 0 -140 23 0 22 1 22 163 24 89
2 169 0 177 -2z m700 -12 c4 -4 6 -23 3 -40 -6 -35 -14 -38 -79 -34 -24 2 -33
-2 -37 -18 -3 -13 -13 -21 -25 -21 -17 0 -21 7 -24 38 l-3 37 -195 0 -195 0 0
-35 c-1 -28 -5 -36 -23 -38 -18 -3 -22 1 -22 26 0 16 -3 43 -6 60 l-6 31 88 3
c163 5 517 -1 524 -9z m240 -2 c0 -5 -3 -24 -7 -42 l-7 -34 -7 30 -7 30 -1
-27 c-1 -24 -5 -28 -31 -28 -23 0 -30 4 -30 20 0 18 -7 20 -55 20 -48 0 -55 2
-55 20 0 19 7 20 100 20 55 0 100 -4 100 -9z m-120 -91 c0 -13 -7 -20 -20 -20
-13 0 -20 7 -20 20 0 13 7 20 20 20 13 0 20 -7 20 -20z m-160 -35 c0 -18 -5
-25 -20 -25 -15 0 -20 7 -20 25 0 18 5 25 20 25 15 0 20 -7 20 -25z m-920 -39
c0 -18 -16 -29 -30 -21 -13 8 -1 35 16 35 8 0 14 -6 14 -14z m1080 -47 c0 -10
-2 -19 -4 -19 -2 0 -11 -3 -19 -6 -18 -6 -32 37 -15 47 17 11 38 -1 38 -22z
m-537 -178 c15 -1 17 -16 17 -162 0 -147 -1 -160 -17 -157 -16 3 -18 18 -21
120 l-3 117 -94 -2 c-52 -1 -96 -4 -96 -7 -1 -3 -3 -27 -4 -55 -2 -43 -5 -50
-24 -53 -16 -3 -21 2 -21 17 0 14 -6 21 -20 21 -17 0 -19 6 -17 55 2 45 5 55
20 55 12 0 17 8 17 29 l0 30 123 -4 c67 -2 130 -4 140 -4z m650 -88 c-8 -58
-11 -67 -12 -35 l-1 42 -262 1 c-145 1 -266 1 -270 0 -4 0 -7 10 -6 23 2 17 7
22 20 18 13 -3 18 1 18 17 0 20 4 21 253 23 138 2 256 0 261 -4 5 -4 4 -40 -1
-85z m-563 61 c0 -2 -13 -4 -30 -4 -16 0 -30 4 -30 8 0 5 14 7 30 4 17 -2 30
-6 30 -8z m-358 -209 c3 -28 1 -35 -13 -35 -14 0 -17 6 -13 27 10 53 20 56 26
8z m-72 -54 c0 -10 -9 -21 -20 -24 -15 -4 -20 0 -20 13 0 17 12 27 33 29 4 1
7 -7 7 -18z m462 -90 c14 8 23 8 31 0 6 -6 43 -11 82 -11 82 0 115 -7 115 -25
0 -8 8 -16 18 -18 9 -3 -2 -5 -25 -6 -37 -1 -43 -4 -43 -22 0 -13 -8 -23 -21
-26 -11 -3 -18 -11 -15 -18 2 -6 0 -18 -5 -26 -8 -12 -10 -12 -19 1 -7 12 -12
12 -21 3 -23 -23 1 -27 119 -25 124 3 152 7 152 23 0 6 -4 7 -10 4 -5 -3 -10
-1 -10 4 0 6 5 11 10 11 6 0 10 5 10 11 0 5 -4 7 -10 4 -5 -3 -10 -1 -10 4 0
6 5 11 11 11 6 0 9 8 7 18 -2 12 -13 17 -38 17 -28 0 -35 4 -35 19 0 27 38 35
135 29 l80 -6 0 -98 0 -99 -279 0 -278 0 -7 100 c-5 69 -3 106 5 121 10 20 12
20 21 6 7 -14 13 -15 30 -6z m-134 -31 c2 -6 8 -8 13 -4 5 3 9 -11 9 -30 l0
-36 -55 0 c-49 0 -55 2 -55 21 0 19 -3 20 -52 13 -29 -4 -62 -8 -72 -9 -11 -1
-22 -7 -24 -13 -2 -8 -29 -12 -73 -12 -62 0 -69 2 -69 20 0 18 -7 20 -75 20
-68 0 -75 -2 -75 -20 0 -17 -7 -20 -40 -20 -36 0 -40 2 -40 25 0 19 5 25 17
23 12 -2 17 3 15 14 -2 16 11 18 135 20 225 5 438 -1 441 -12z m409 -12 c-3
-8 -6 -5 -6 6 -1 11 2 17 5 13 3 -3 4 -12 1 -19z m250 -130 c-2 -29 -3 -6 -3
52 0 58 1 81 3 53 2 -29 2 -77 0 -105z m-337 42 c8 -5 11 -10 5 -10 -5 0 -17
5 -25 10 -8 5 -10 10 -5 10 6 0 17 -5 25 -10z m-180 -104 c0 -3 -4 -8 -10 -11
-5 -3 -10 -1 -10 4 0 6 5 11 10 11 6 0 10 -2 10 -4z m-510 -211 c0 -18 5 -25
18 -25 10 0 19 -6 19 -14 0 -9 -13 -14 -39 -14 -38 -1 -38 0 -38 39 0 32 3 39
20 39 15 0 20 -7 20 -25z m40 -110 c0 -18 -5 -25 -20 -25 -15 0 -20 7 -20 25
0 18 5 25 20 25 15 0 20 -7 20 -25z m78 -26 c-2 -23 -9 -35 -20 -37 -15 -3
-18 4 -18 36 0 23 5 42 13 45 20 7 29 -8 25 -44z m-70 -201 c-2 -34 -7 -43
-20 -42 -10 0 -65 1 -122 2 -95 2 -105 4 -111 22 -4 11 -10 18 -15 15 -18 -11
-21 17 -4 30 14 11 53 14 147 15 l128 0 -3 -42z m312 18 c0 -13 3 -32 6 -41 6
-14 -3 -16 -77 -13 -82 3 -83 3 -90 32 -5 16 -6 33 -3 38 3 4 41 8 85 8 77 0
79 -1 79 -24z m640 -116 c0 -13 -7 -20 -20 -20 -13 0 -20 7 -20 20 0 13 7 20
20 20 13 0 20 -7 20 -20z m-920 -85 c0 -8 -4 -15 -10 -15 -5 0 -10 7 -10 15 0
8 5 15 10 15 6 0 10 -7 10 -15z m-303 -71 c-3 -3 -12 -4 -19 -1 -8 3 -5 6 6 6
11 1 17 -2 13 -5z m1216 -14 c3 -11 2 -20 -3 -20 -4 0 -10 9 -13 20 -3 11 -2
20 3 20 4 0 10 -9 13 -20z m460 -1215 c-3 -9 -8 -14 -10 -11 -3 3 -2 9 2 15 9
16 15 13 8 -4z"/>
<path d="M590 9460 c0 -5 5 -10 10 -10 6 0 10 5 10 10 0 6 -4 10 -10 10 -5 0
-10 -4 -10 -10z"/>
<path d="M528 9413 c6 -2 18 -2 25 0 6 3 1 5 -13 5 -14 0 -19 -2 -12 -5z"/>
<path d="M816 7305 c4 -8 8 -15 10 -15 2 0 4 7 4 15 0 8 -4 15 -10 15 -5 0 -7
-7 -4 -15z"/>
<path d="M850 9700 c0 -14 43 -23 87 -16 21 3 71 5 111 6 41 0 72 4 72 10 0 6
-52 10 -135 10 -82 0 -135 -4 -135 -10z"/>
<path d="M950 9633 c-22 -9 -28 -21 -22 -49 6 -31 32 -32 32 -1 0 22 3 23 42
18 30 -4 44 -11 46 -23 3 -14 -3 -18 -22 -18 -19 0 -26 -5 -26 -20 0 -13 -7
-20 -20 -20 -13 0 -20 -7 -20 -20 0 -17 7 -20 40 -20 33 0 40 3 40 20 0 13 7
20 20 20 16 0 20 7 20 34 0 19 -4 46 -10 60 -8 23 -15 26 -57 25 -27 0 -55 -3
-63 -6z"/>
<path d="M967 9433 c-4 -3 -7 -19 -7 -35 0 -26 3 -28 40 -28 39 0 40 1 40 35
0 33 -2 35 -33 35 -19 0 -37 -3 -40 -7z"/>
<path d="M4803 8269 c-4 -15 -15 -19 -47 -20 -22 -1 -47 -1 -55 1 -31 4 -61
-11 -61 -30 0 -13 -7 -20 -20 -20 -11 0 -20 -6 -20 -14 0 -8 -10 -16 -22 -18
-15 -2 -22 -9 -20 -20 2 -12 -8 -18 -37 -23 -22 -4 -49 -4 -61 0 -16 5 -20 2
-20 -14 0 -14 -6 -21 -20 -21 -15 0 -20 -7 -20 -25 0 -18 -5 -25 -20 -25 -13
0 -20 -7 -20 -20 0 -13 -7 -20 -20 -20 -17 0 -20 -7 -20 -40 0 -35 -3 -39 -22
-37 -17 1 -24 -4 -26 -20 -2 -13 -9 -23 -17 -23 -7 0 -15 -9 -18 -20 -3 -11
-12 -20 -20 -20 -8 0 -17 -9 -20 -20 -3 -11 -12 -20 -21 -20 -9 0 -16 -8 -16
-20 0 -13 -7 -20 -20 -20 -16 0 -20 -7 -20 -35 0 -28 -4 -35 -20 -35 -14 0
-20 -7 -21 -25 -1 -14 -2 -31 -3 -37 -1 -7 -10 -18 -21 -23 -16 -8 -21 -22
-23 -65 -2 -35 -9 -58 -18 -63 -8 -4 -14 -15 -14 -22 0 -12 -14 -15 -60 -15
-53 0 -60 -2 -60 -19 0 -13 -8 -21 -22 -23 -19 -2 -23 -9 -23 -35 0 -26 -4
-33 -18 -33 -11 0 -21 -9 -24 -20 -3 -11 -11 -20 -19 -20 -8 0 -14 -15 -16
-42 -3 -43 -3 -43 -45 -46 l-43 -3 0 -53 c0 -87 11 -146 27 -146 8 0 17 -9 20
-20 4 -15 14 -20 38 -20 27 0 34 -4 37 -22 2 -17 9 -22 26 -21 16 2 22 -2 22
-17 0 -13 7 -20 20 -20 13 0 20 -7 20 -20 0 -16 7 -20 35 -20 33 0 35 -2 41
-40 6 -37 9 -40 40 -40 33 0 34 -1 34 -40 0 -36 3 -40 25 -40 23 0 25 -4 25
-40 0 -33 3 -40 20 -40 13 0 20 -7 20 -20 0 -11 6 -20 14 -20 7 0 16 -9 19
-20 4 -17 15 -20 98 -22 63 -2 94 -7 97 -15 2 -7 -3 -13 -12 -13 -10 0 -16 -9
-16 -25 0 -24 -3 -25 -60 -25 -47 0 -60 -3 -60 -15 0 -11 -12 -15 -47 -15 -76
0 -125 -11 -119 -26 3 -9 -9 -15 -40 -20 -33 -5 -44 -11 -44 -24 0 -10 -6 -18
-12 -17 -7 0 -44 -1 -82 -1 -58 -2 -67 -4 -62 -18 4 -11 -1 -18 -14 -21 -11
-3 -20 -11 -20 -19 0 -10 -22 -14 -82 -16 -75 -3 -83 -5 -83 -23 0 -16 -8 -21
-37 -23 -31 -3 -38 -7 -38 -24 0 -13 -5 -18 -14 -15 -18 7 -36 -11 -29 -29 3
-9 -2 -14 -16 -14 -14 0 -21 -6 -21 -20 0 -13 -7 -20 -20 -20 -16 0 -20 -7
-20 -35 0 -28 -4 -35 -20 -35 -13 0 -18 5 -14 15 5 13 -10 15 -100 15 -99 0
-106 -1 -106 -20 0 -13 -7 -20 -20 -20 -19 0 -20 -7 -20 -100 l0 -100 -100 0
-100 0 0 -40 0 -40 -40 0 c-39 0 -40 -1 -40 -34 0 -26 -5 -36 -20 -41 -17 -5
-20 -15 -20 -66 0 -52 -2 -59 -20 -59 -18 0 -20 -7 -20 -80 l0 -80 40 0 40 0
0 -40 c0 -33 3 -40 20 -40 17 0 20 -7 20 -40 0 -33 3 -40 20 -40 13 0 20 -7
20 -20 0 -17 7 -20 40 -20 33 0 40 -3 40 -20 0 -18 7 -20 60 -20 53 0 60 -2
60 -20 0 -18 7 -20 80 -20 73 0 80 -2 80 -20 0 -18 7 -20 60 -20 53 0 60 2 60
20 0 13 7 20 20 20 13 0 20 7 20 20 0 13 7 20 20 20 13 0 20 7 20 20 0 12 7
20 16 20 9 0 18 9 21 20 3 11 14 20 24 20 13 0 19 9 21 38 3 35 5 37 41 40
l37 3 0 140 0 139 59 0 60 0 3 38 c3 35 5 37 43 42 l40 5 3 53 3 52 35 0 c27
0 34 4 34 20 0 17 7 20 43 22 45 1 75 1 95 -1 9 -1 12 -27 12 -96 0 -78 -3
-95 -15 -95 -10 0 -15 -10 -15 -32 0 -48 -10 -78 -26 -78 -8 0 -14 -6 -14 -12
-1 -7 0 -109 0 -225 l1 -213 -41 0 c-36 0 -40 2 -40 25 0 23 -4 25 -40 25 -34
0 -40 3 -40 20 0 20 -5 20 -122 18 -108 -3 -123 -5 -120 -20 2 -12 -8 -18 -38
-23 -31 -5 -40 -11 -40 -27 0 -14 -5 -18 -15 -14 -10 4 -19 -3 -25 -19 -6 -16
-15 -23 -25 -19 -11 5 -15 -1 -15 -20 0 -19 -5 -26 -20 -26 -11 0 -20 -6 -20
-14 0 -7 -9 -16 -20 -19 -19 -5 -20 -14 -20 -146 0 -116 3 -141 14 -141 10 0
16 -13 18 -37 2 -31 7 -39 26 -41 19 -3 22 -9 22 -48 0 -32 4 -44 15 -44 10 0
15 -11 15 -35 0 -31 3 -35 25 -35 25 0 25 -1 25 -80 0 -64 3 -80 15 -80 14 0
21 -39 17 -93 -1 -10 6 -21 16 -24 23 -9 32 -23 32 -55 0 -18 5 -28 15 -28 11
0 15 -11 15 -40 0 -36 3 -40 25 -40 18 0 25 -5 25 -20 0 -13 7 -20 20 -20 13
0 20 -7 20 -19 0 -10 9 -21 20 -24 11 -3 20 -12 20 -21 0 -12 10 -16 40 -16
33 0 40 -3 40 -20 0 -17 7 -20 40 -20 33 0 40 -3 40 -20 0 -19 7 -20 125 -20
117 0 125 1 125 19 0 16 8 20 38 23 28 2 37 7 36 21 -1 10 5 17 16 17 10 0 22
9 25 20 3 11 15 20 26 20 18 0 19 9 19 220 0 189 2 220 15 220 11 0 15 11 15
40 l0 40 40 0 c33 0 40 3 40 20 0 13 7 20 20 20 17 0 20 7 20 40 0 33 3 40 20
40 13 0 20 7 20 20 0 16 8 19 63 22 62 3 62 3 65 36 l3 32 210 0 209 0 0 -35
c0 -31 3 -35 25 -35 23 0 25 -4 25 -40 0 -33 3 -40 20 -40 18 0 20 -7 20 -60
0 -53 2 -60 20 -60 17 0 20 -7 20 -40 0 -33 3 -40 20 -40 18 0 20 -7 20 -80
l0 -80 35 0 35 0 0 -240 0 -240 38 0 c30 0 41 -5 48 -21 10 -21 15 -22 187
-20 171 2 177 1 177 -18 0 -16 8 -20 38 -23 35 -3 37 -5 40 -40 l3 -38 161 0
c151 0 160 1 165 20 4 15 14 20 39 20 27 0 34 4 34 20 0 17 7 20 40 20 33 0
40 3 40 20 0 15 7 20 25 20 18 0 25 5 25 19 0 10 9 21 20 24 11 3 20 12 20 21
0 9 7 16 15 16 8 0 15 9 15 19 0 13 8 21 23 23 21 3 22 7 25 118 3 128 -1 160
-23 160 -10 0 -15 11 -15 35 0 29 -5 37 -25 45 -15 6 -25 17 -25 30 0 17 -7
20 -40 20 -33 0 -40 3 -40 19 0 18 -7 19 -97 18 -92 -2 -98 -1 -98 18 0 18 -8
20 -62 23 -49 2 -61 6 -56 17 3 8 3 25 -1 38 -5 20 -11 22 -41 19 -19 -2 -43
-1 -52 3 -17 6 -17 7 0 16 14 8 17 24 17 94 0 76 -2 85 -19 85 -13 0 -21 11
-27 43 -7 32 -14 41 -27 39 -15 -3 -17 7 -17 78 0 73 -2 80 -20 80 -17 0 -20
7 -20 40 0 33 -3 40 -20 40 -13 0 -20 7 -20 20 0 11 -6 20 -14 20 -8 0 -17 11
-20 25 -4 16 -13 25 -26 25 -16 0 -20 7 -20 35 0 29 -4 35 -21 35 -11 0 -18 4
-15 9 10 16 -5 41 -23 39 -10 -2 -17 5 -19 20 -2 14 -10 22 -23 22 -25 0 -24
16 2 23 11 3 23 15 26 26 3 12 12 21 19 21 8 0 14 9 14 20 0 13 7 20 20 20 20
0 26 23 20 87 -1 15 5 22 22 25 22 3 23 6 23 108 0 101 -1 105 -23 108 -12 2
-20 7 -17 12 3 5 2 65 -1 134 -5 93 -10 126 -20 126 -9 0 -14 19 -16 57 -2 47
-6 58 -23 63 -11 3 -20 11 -21 18 -2 29 -5 33 -21 30 -14 -2 -19 5 -21 36 -2
26 -9 40 -20 43 -13 3 -18 17 -20 59 l-3 54 40 0 c34 0 41 3 41 20 0 13 7 20
19 20 10 0 21 9 24 20 3 12 14 20 27 20 14 0 20 5 18 18 -2 9 3 16 10 14 7 -1
18 9 24 23 9 19 19 25 45 25 28 0 33 3 33 24 0 35 10 56 26 56 8 0 14 9 14 20
0 14 7 20 21 20 12 0 23 8 26 20 3 11 11 20 18 20 8 0 17 9 20 20 5 16 15 20
46 20 l39 0 -5 80 -5 80 40 0 40 0 0 200 c0 193 -1 200 -20 200 -17 0 -20 7
-20 41 0 32 -4 42 -20 46 -15 4 -20 14 -20 39 0 31 -2 33 -37 36 -37 3 -38 4
-41 46 -3 34 -7 43 -20 40 -12 -2 -18 -15 -20 -45 -3 -37 0 -42 20 -45 19 -2
23 -9 23 -38 0 -33 2 -35 38 -38 36 -3 37 -4 37 -43 0 -32 3 -39 20 -39 17 0
20 -7 20 -45 0 -25 -3 -44 -7 -44 -20 3 -33 -2 -33 -13 0 -6 3 -8 6 -5 4 3 14
2 23 -2 14 -8 16 -27 14 -128 -2 -110 -4 -118 -23 -121 -12 -2 -20 -11 -20
-23 0 -15 -7 -19 -34 -19 -33 0 -35 -2 -38 -37 -3 -36 -5 -38 -41 -41 -32 -3
-39 0 -44 17 -3 12 -14 21 -24 21 -12 0 -19 7 -19 20 0 17 -7 20 -39 20 -34 0
-40 3 -38 20 1 12 8 20 19 20 11 0 18 7 18 20 0 13 7 20 20 20 19 0 20 7 20
160 0 153 -1 160 -20 160 -13 0 -20 7 -20 20 0 21 -10 24 -48 14 l-23 -7 23
-16 c13 -9 28 -16 33 -16 6 0 11 -33 13 -72 3 -68 1 -73 -18 -73 -15 0 -20 -6
-20 -25 0 -18 -5 -25 -20 -25 -13 0 -20 -7 -20 -20 0 -13 -7 -20 -20 -20 -11
0 -20 -6 -20 -14 0 -8 -10 -16 -22 -18 -15 -2 -24 -11 -26 -25 -3 -22 -6 -23
-110 -20 -97 2 -107 4 -112 22 -4 11 -14 20 -25 20 -11 0 -21 8 -23 18 -2 9
-10 17 -19 17 -8 0 -17 9 -20 20 -5 18 -14 20 -84 20 -72 0 -79 2 -79 20 0 18
-7 20 -59 20 -51 0 -61 3 -66 20 -5 17 -15 20 -61 20 l-54 0 0 -40 c0 -36 -2
-40 -25 -40 -18 0 -25 -5 -25 -20 0 -15 7 -20 25 -20 18 0 25 -5 25 -20 0 -11
7 -20 15 -20 11 0 15 -11 15 -40 l0 -40 64 0 c59 0 64 -2 59 -20 -5 -19 0 -20
96 -20 83 0 101 -3 101 -15 0 -8 -4 -15 -10 -15 -5 0 -10 5 -10 10 0 6 -7 10
-16 10 -8 0 -13 -4 -9 -9 7 -12 -45 -21 -97 -19 -42 2 -53 -4 -45 -27 4 -9 19
-15 36 -15 32 0 32 2 46 -111 l6 -47 74 -1 c73 -1 81 2 76 32 0 4 8 7 19 7 13
0 20 7 20 20 0 13 7 20 20 20 15 0 20 7 20 25 0 21 -5 25 -31 25 -17 0 -28 4
-24 10 3 6 -2 10 -12 11 -10 0 -13 3 -5 6 22 9 13 32 -15 36 -23 3 -21 4 9 6
31 1 37 -2 40 -21 3 -21 8 -23 66 -21 41 1 62 -3 62 -10 0 -7 5 -6 10 3 9 13
10 13 10 0 0 -13 1 -13 10 0 9 13 10 13 10 0 0 -13 1 -13 10 0 10 16 12 12 15
-32 2 -21 -2 -28 -16 -28 -14 0 -19 -7 -19 -25 0 -18 -5 -25 -20 -25 -13 0
-20 -7 -20 -20 0 -13 -7 -20 -20 -20 -13 0 -20 -7 -20 -20 0 -13 -7 -20 -20
-20 -17 0 -20 -7 -21 -52 -1 -29 -1 -56 0 -60 0 -5 -36 -8 -81 -8 -57 0 -78 3
-68 10 8 5 12 10 7 10 -4 0 -16 -5 -27 -12 -16 -10 -22 -9 -39 11 -11 12 -22
22 -25 22 -3 -1 -41 -1 -84 -1 -74 0 -80 2 -90 24 -8 19 -8 26 1 29 7 2 9 8 5
12 -14 15 -40 -4 -33 -25 4 -11 2 -20 -4 -20 -6 0 -11 9 -11 20 0 17 -7 20
-57 22 -44 1 -48 2 -18 5 104 8 125 14 125 32 0 26 -26 30 -134 24 -89 -6 -93
-5 -99 16 -4 15 -13 21 -36 22 -17 1 -40 3 -51 4 -11 1 -24 3 -30 4 -5 0 -10
8 -10 17 0 9 -9 18 -20 21 -11 3 -20 11 -20 18 0 7 -9 15 -21 18 -19 5 -20 11
-17 96 3 87 2 91 -18 91 -16 0 -21 -6 -21 -25 0 -14 -2 -27 -4 -30 -2 -2 -54
-5 -116 -7 -100 -3 -112 -1 -117 15 -2 9 -14 17 -25 17 -18 0 -21 6 -21 39 0
33 -4 40 -22 43 -22 3 -23 8 -26 101 -2 77 -6 97 -17 97 -12 0 -15 -17 -15
-81 0 -71 -2 -80 -17 -77 -15 3 -17 16 -18 97 0 81 2 95 18 99 12 3 17 14 17
38 0 29 5 36 33 48 17 8 26 15 19 15 -7 1 -10 6 -7 11 3 6 40 10 82 10 66 0
75 -2 80 -20 3 -11 13 -20 23 -20 29 0 50 -11 50 -25 0 -8 9 -16 19 -20 10 -3
21 -15 24 -26 3 -12 10 -18 15 -15 6 3 13 -27 17 -74 6 -67 10 -80 25 -80 21
0 31 -38 23 -87 l-6 -33 62 0 c54 0 61 2 61 20 0 13 7 20 20 20 15 0 20 7 20
25 0 19 5 25 23 25 18 0 19 2 7 10 -9 6 -10 10 -3 10 16 0 27 60 18 99 -5 22
-12 31 -26 31 -17 0 -19 7 -19 59 0 50 -3 59 -20 64 -11 3 -20 12 -20 21 0 12
-10 16 -40 16 -37 0 -40 2 -40 28 0 15 4 33 9 41 7 11 11 10 20 -5 8 -15 11
-6 12 46 2 111 6 151 18 163 8 8 11 6 11 -7 0 -12 5 -16 14 -13 8 3 17 -1 20
-9 4 -11 22 -14 78 -13 86 3 93 5 72 27 -13 12 -14 17 -4 20 7 3 17 -3 22 -11
5 -9 15 -14 24 -10 9 3 4 -6 -11 -21 -14 -14 -31 -24 -36 -21 -5 4 -9 -8 -9
-24 0 -29 2 -31 40 -31 33 0 40 3 40 20 0 19 7 20 100 20 93 0 100 -1 100 -20
0 -17 7 -20 39 -20 37 0 39 2 43 36 3 26 0 38 -13 45 -10 5 -21 18 -24 29 -3
11 -12 20 -20 20 -24 0 -23 26 1 49 13 13 24 30 24 38 0 12 15 14 85 11 50 -2
87 1 89 7 3 6 5 -13 5 -42 1 -41 -3 -52 -16 -56 -17 -4 -17 -5 0 -6 21 -1 24
-41 2 -41 -11 0 -15 -12 -15 -45 0 -38 3 -45 20 -45 13 0 20 7 20 19 0 26 16
30 93 26 l66 -4 3 57 3 57 115 3 c79 2 118 6 125 15 6 7 18 16 28 20 9 3 17
16 17 27 0 16 6 20 35 20 35 0 35 0 35 46 0 41 -2 46 -20 41 -16 -4 -20 0 -20
19 0 17 -6 24 -20 24 -14 0 -20 7 -20 21 0 16 -4 19 -20 14 -16 -5 -20 -2 -20
14 0 17 -6 21 -36 21 -27 0 -37 5 -41 19 -6 22 -43 34 -95 31 -73 -4 -70 -7
-68 73 5 170 1 207 -19 207 -11 0 -18 7 -18 18 0 44 -4 50 -38 56 -21 4 -35
13 -35 21 0 8 -9 15 -20 15 -13 0 -20 7 -20 20 0 13 -7 20 -19 20 -11 0 -22 9
-26 19 -4 14 -19 21 -55 26 -27 4 -54 4 -60 0 -6 -4 -10 3 -10 17 l0 23 -176
1 c-165 2 -177 0 -181 -17z m436 -192 c6 -8 8 -17 4 -20 -3 -4 3 -7 15 -7 12
0 23 -8 27 -20 3 -11 11 -20 16 -20 5 0 14 -11 19 -25 5 -14 16 -25 24 -25 9
0 15 -14 18 -42 6 -57 0 -78 -23 -78 -15 0 -19 7 -19 40 0 33 -3 40 -20 40
-16 0 -20 7 -20 35 0 29 -5 37 -25 45 -16 6 -23 14 -19 25 4 10 0 15 -14 15
-15 0 -21 -9 -26 -40 -5 -31 -11 -40 -26 -40 -11 0 -20 7 -20 15 0 9 -7 18
-15 21 -8 4 -15 14 -15 24 0 15 -7 18 -32 16 -36 -3 -46 -20 -47 -78 -1 -27
-5 -38 -16 -38 -12 0 -15 -13 -15 -55 l0 -55 35 0 35 0 0 75 c0 67 2 75 19 75
15 0 21 -10 26 -40 6 -35 10 -40 33 -40 20 0 31 8 42 32 26 56 40 47 40 -26 0
-51 4 -68 15 -73 9 -3 22 2 29 12 16 22 51 13 42 -11 -3 -9 -6 -24 -6 -35 0
-18 -9 -19 -159 -19 -151 0 -159 1 -164 20 -3 11 -11 19 -18 18 -19 -4 -24 33
-21 147 3 94 5 105 21 105 10 0 21 9 24 20 5 18 14 20 115 20 79 0 113 -4 121
-13z m-162 -623 c-3 -3 -12 -4 -19 -1 -8 3 -5 6 6 6 11 1 17 -2 13 -5z m-207
-45 c0 -6 -4 -7 -10 -4 -5 3 -10 11 -10 16 0 6 5 7 10 4 6 -3 10 -11 10 -16z
m-193 -41 c-3 -8 -6 -5 -6 6 -1 11 2 17 5 13 3 -3 4 -12 1 -19z m-100 -105
c-3 -10 -5 -2 -5 17 0 19 2 27 5 18 2 -10 2 -26 0 -35z m633 -673 c11 -7 -1
-9 -40 -9 -42 1 -49 3 -30 9 35 11 53 11 70 0z m8 -27 c-10 -2 -28 -2 -40 0
-13 2 -5 4 17 4 22 1 32 -1 23 -4z m-335 -246 c-3 -5 -14 -7 -24 -4 -11 3 -19
1 -19 -3 0 -5 10 -10 22 -12 16 -2 22 -10 23 -30 0 -16 -3 -28 -7 -28 -4 0 -8
5 -8 11 0 5 -4 7 -10 4 -5 -3 -10 3 -10 14 0 14 -6 21 -19 21 -10 0 -21 9 -24
20 -5 19 -1 21 38 19 24 -2 41 -7 38 -12z m-95 -131 c7 -4 12 -20 12 -35 0
-20 6 -30 20 -34 11 -3 20 -13 21 -24 0 -10 1 -33 2 -51 l2 -32 -62 0 -63 0 0
54 c0 45 -3 54 -20 59 -15 4 -20 14 -20 42 l0 36 48 -4 c27 -2 54 -7 60 -11z
m605 -123 c-1 -6 16 -13 37 -17 32 -5 40 -11 40 -27 0 -18 -5 -20 -52 -17
l-53 3 -3 38 c-3 33 -1 38 15 35 10 -2 17 -9 16 -15z m-2033 -123 c0 -53 2
-60 20 -60 13 0 20 -7 20 -20 0 -17 7 -20 40 -20 28 0 40 -4 40 -14 0 -9 15
-17 40 -21 31 -5 40 -11 40 -27 0 -11 8 -22 19 -25 14 -3 21 -15 23 -37 3 -28
7 -31 41 -34 36 -3 37 -4 37 -43 0 -32 -3 -39 -20 -39 -11 0 -20 7 -20 15 0 8
-7 15 -15 15 -9 0 -18 -7 -21 -15 -4 -10 -20 -15 -45 -15 -32 0 -39 -3 -39
-20 0 -17 7 -20 40 -20 36 0 40 -2 40 -25 0 -19 -5 -25 -21 -25 -12 0 -19 -5
-16 -12 2 -7 10 -13 18 -13 11 0 15 -19 17 -82 3 -78 2 -83 -18 -83 -13 0 -20
-7 -20 -20 0 -13 -7 -20 -20 -20 -13 0 -20 -7 -20 -20 0 -13 -7 -20 -20 -20
-13 0 -20 -7 -20 -20 0 -13 -7 -20 -20 -20 -13 0 -20 -7 -20 -20 0 -13 -7 -20
-19 -20 -11 0 -23 -5 -26 -10 -4 -6 -11 -8 -16 -5 -5 4 -9 1 -9 -4 0 -6 7 -11
15 -11 8 0 15 -9 15 -20 0 -18 -6 -20 -62 -19 -47 1 -57 3 -38 9 24 8 24 8 3
9 -31 1 -34 51 -3 51 18 0 20 7 20 80 0 73 -2 80 -20 80 -18 0 -20 -7 -20 -60
0 -53 -2 -60 -20 -60 -17 0 -20 -7 -20 -40 0 -40 0 -40 -38 -40 l-39 0 -6 121
c-4 66 -10 125 -13 131 -14 23 -24 -22 -24 -114 l0 -98 -40 0 -40 0 0 100 c0
93 -1 100 -20 100 -18 0 -20 -7 -20 -80 l0 -80 -40 0 -40 0 0 113 c0 76 3 107
10 97 8 -13 10 -12 10 3 0 10 5 15 10 12 6 -4 10 13 10 44 0 44 -3 51 -20 51
-17 0 -20 -7 -20 -40 0 -33 -3 -40 -20 -40 -17 0 -20 -7 -20 -40 0 -33 -3 -40
-20 -40 -13 0 -20 7 -20 20 0 13 -7 20 -20 20 -18 0 -20 7 -20 60 0 53 2 60
20 60 17 0 20 7 20 40 0 33 3 40 20 40 17 0 20 7 20 40 0 33 3 40 20 40 13 0
20 7 20 20 0 13 7 20 19 20 11 0 23 9 26 20 6 18 15 20 101 20 l94 0 0 100 c0
93 1 100 20 100 13 0 20 7 20 20 0 18 7 20 80 20 l80 0 0 -60z m1560 0 c0 -13
7 -20 20 -20 18 0 20 -7 20 -79 l0 -78 -57 -1 c-32 -1 -77 1 -100 4 -42 5 -43
6 -43 45 0 32 -3 39 -20 39 -16 0 -20 7 -20 31 0 22 5 32 20 36 11 3 20 14 20
24 0 17 8 19 80 19 73 0 80 -2 80 -20z m579 5 c12 -12 -16 -25 -47 -22 -26 2
-38 8 -40 21 -3 16 1 17 40 11 23 -4 45 -9 47 -10z m62 -67 c25 -14 34 -57 14
-70 -6 -5 -4 -8 5 -8 13 0 13 -1 0 -10 -12 -7 -12 -12 -2 -22 6 -6 12 -18 12
-25 0 -18 -48 -16 -66 2 -9 8 -28 15 -44 15 -32 0 -40 14 -40 75 l0 44 48 4
c26 2 48 4 48 5 1 1 12 -4 25 -10z m-395 -34 c8 -30 -2 -44 -32 -44 -17 0 -24
5 -24 20 0 11 -7 23 -15 26 -29 11 -15 24 25 22 33 -1 41 -5 46 -24z m31 20
c-3 -3 -12 -4 -19 -1 -8 3 -5 6 6 6 11 1 17 -2 13 -5z m123 -29 c0 -28 -4 -35
-20 -35 -11 0 -20 5 -20 11 0 6 -12 10 -27 9 -50 -4 -63 0 -63 15 0 8 12 17
28 21 15 3 32 7 37 9 6 2 22 4 38 4 24 1 27 -2 27 -34z m265 -181 c-12 -9 -24
-10 -35 -4 -11 6 -21 5 -28 -2 -12 -12 -42 -4 -42 11 0 10 96 20 114 12 5 -2
1 -10 -9 -17z m-1555 -654 c0 -21 -5 -30 -16 -30 -11 0 -14 5 -10 16 3 9 6 22
6 30 0 8 5 14 10 14 6 0 10 -13 10 -30z m1850 -774 c0 -15 -53 -32 -69 -21 -6
3 -26 6 -46 7 -46 2 -45 16 3 21 86 9 112 7 112 -7z m-120 -86 c0 -5 -7 -10
-15 -10 -8 0 -15 5 -15 10 0 6 7 10 15 10 8 0 15 -4 15 -10z m40 -40 c0 -13
-7 -20 -20 -20 -13 0 -20 7 -20 20 0 13 7 20 20 20 13 0 20 -7 20 -20z m458
-146 c43 -12 16 -28 -53 -32 -48 -3 -70 0 -76 9 -4 7 -5 17 -3 21 6 9 99 10
132 2z"/>
<path d="M3010 5620 c0 -5 7 -10 16 -10 8 0 12 5 9 10 -3 6 -10 10 -16 10 -5
0 -9 -4 -9 -10z"/>
<path d="M3051 5424 c0 -11 3 -14 6 -6 3 7 2 16 -1 19 -3 4 -6 -2 -5 -13z"/>
<path d="M253 7853 c9 -2 23 -2 30 0 6 3 -1 5 -18 5 -16 0 -22 -2 -12 -5z"/>
<path d="M2107 7683 c-20 -3 -27 -9 -25 -21 3 -15 21 -17 141 -20 129 -2 137
-4 137 -22 0 -17 7 -20 40 -20 33 0 40 -3 40 -20 0 -23 35 -28 43 -6 7 18 -1
26 -25 26 -11 0 -18 7 -18 20 0 11 -7 21 -15 21 -8 1 -19 3 -25 4 -5 1 -16 3
-24 4 -7 0 -16 10 -19 21 -5 19 -13 20 -114 19 -59 -1 -121 -4 -136 -6z"/>
<path d="M2040 7620 c0 -13 -7 -20 -20 -20 -13 0 -20 -7 -20 -20 0 -13 -7 -20
-20 -20 -13 0 -20 -7 -20 -20 0 -13 -7 -20 -20 -20 -13 0 -20 -7 -20 -20 0
-13 -7 -20 -20 -20 -19 0 -20 -7 -20 -159 0 -150 1 -159 20 -164 15 -4 20 -14
20 -41 0 -29 4 -36 20 -36 13 0 20 -7 20 -20 0 -16 7 -20 36 -20 27 0 37 -5
41 -20 3 -11 14 -20 24 -20 12 0 19 -7 19 -20 0 -19 7 -20 140 -20 133 0 140
1 140 20 0 14 7 20 21 20 12 0 23 8 26 20 3 11 12 20 19 20 8 0 14 9 14 20 0
13 7 20 20 20 13 0 20 7 20 20 0 13 7 20 20 20 17 0 20 7 20 40 0 32 4 40 19
40 24 0 31 63 23 213 -4 95 -7 107 -23 107 -12 0 -19 7 -19 20 0 13 -7 20 -20
20 -13 0 -20 -7 -20 -20 0 -13 7 -20 20 -20 19 0 20 -7 20 -160 0 -153 -1
-160 -20 -160 -13 0 -20 -7 -20 -20 0 -13 -7 -20 -20 -20 -13 0 -20 -7 -20
-20 0 -13 -7 -20 -20 -20 -13 0 -20 7 -20 20 0 12 -7 20 -17 20 -14 0 -15 2
-4 9 17 11 6 17 -51 25 -44 7 -48 6 -48 -14 0 -15 -5 -20 -17 -18 -13 2 -19
14 -21 41 l-3 37 40 0 c34 0 41 3 41 20 0 13 7 20 20 20 18 0 20 7 20 80 0 73
-2 80 -20 80 -13 0 -20 7 -20 20 0 18 -7 20 -79 20 -71 0 -80 -2 -86 -20 -3
-11 -15 -20 -26 -20 -10 0 -19 -5 -19 -11 0 -5 -4 -7 -10 -4 -6 4 -10 -8 -10
-30 0 -23 -5 -38 -16 -42 -11 -4 -12 -8 -4 -13 8 -5 12 -36 12 -91 0 -131 0
-129 -22 -129 -13 0 -20 -7 -20 -20 0 -26 -30 -26 -37 -1 -3 11 -13 21 -23 24
-17 4 -19 18 -22 128 -2 68 -2 157 0 197 3 64 5 72 22 72 13 0 20 7 20 20 0
13 7 20 20 20 14 0 20 7 20 21 0 12 8 23 20 26 11 3 20 12 20 19 0 8 -9 14
-20 14 -13 0 -20 -7 -20 -20z m280 -240 c0 -13 -7 -20 -20 -20 -13 0 -20 7
-20 20 0 13 7 20 20 20 13 0 20 -7 20 -20z m-72 -26 c12 -4 22 -12 22 -20 0
-8 -6 -11 -15 -8 -11 5 -15 -1 -15 -20 0 -24 -4 -26 -40 -26 -33 0 -40 3 -40
20 0 13 7 20 20 20 13 0 20 7 20 20 0 21 10 24 48 14z"/>
<path d="M5600 7380 c0 -14 -7 -20 -21 -20 -12 0 -23 -8 -26 -20 -3 -11 -12
-20 -20 -20 -11 0 -13 -14 -11 -62 2 -48 7 -63 18 -63 11 0 16 13 18 47 3 50
27 78 64 78 11 0 18 8 18 20 0 17 7 20 40 20 29 0 40 -4 40 -15 0 -8 9 -15 20
-15 11 0 21 -7 21 -15 1 -8 3 -19 4 -25 1 -5 3 -19 4 -30 0 -11 8 -20 16 -20
8 0 15 9 15 20 0 17 7 20 40 20 33 0 40 3 40 20 0 17 -7 20 -40 20 -33 0 -40
3 -40 20 0 13 -7 20 -20 20 -13 0 -20 7 -20 20 0 18 -7 20 -80 20 -73 0 -80
-2 -80 -20z"/>
<path d="M5400 7170 c0 -73 2 -80 20 -80 11 0 20 7 20 15 0 12 18 15 100 15
58 0 100 -4 100 -10 0 -5 -8 -7 -17 -4 -15 5 -15 3 1 -10 11 -9 37 -16 58 -16
31 0 38 4 38 20 0 16 -7 20 -36 20 -27 0 -37 5 -41 20 -3 11 -13 20 -23 20
-10 0 -20 9 -23 20 -7 26 -24 26 -32 0 -6 -18 -14 -21 -63 -18 -50 3 -57 5
-54 22 6 34 -7 66 -28 66 -18 0 -20 -7 -20 -80z"/>
<path d="M5010 7217 c0 -9 10 -14 30 -13 41 1 43 20 3 24 -23 2 -33 -1 -33
-11z"/>
<path d="M5086 7189 c-19 -27 -106 -38 -106 -13 0 8 -4 12 -10 9 -5 -3 -9 -35
-8 -71 1 -60 10 -80 21 -51 3 6 6 -5 6 -25 1 -38 1 -38 44 -39 63 -2 67 -3 77
-19 5 -9 9 31 9 108 0 67 -4 122 -9 122 -5 0 -16 -10 -24 -21z m-6 -89 c0 -13
-7 -20 -20 -20 -13 0 -20 7 -20 20 0 13 7 20 20 20 13 0 20 -7 20 -20z"/>
<path d="M5303 7193 c-9 -3 -13 -27 -12 -71 0 -43 3 -60 8 -47 8 19 8 19 22
-3 8 -12 20 -22 27 -22 13 0 13 10 3 143 -1 8 -29 8 -48 0z"/>
<path d="M5288 7044 c-8 -7 3 -54 13 -54 12 0 12 47 0 54 -4 3 -10 3 -13 0z"/>
<path d="M4168 6973 c7 -3 16 -2 19 1 4 3 -2 6 -13 5 -11 0 -14 -3 -6 -6z"/>
<path d="M5260 6931 c0 -16 -3 -36 -6 -44 -3 -8 1 -17 9 -20 10 -4 14 6 15 38
1 24 -2 47 -8 50 -6 4 -10 -6 -10 -24z"/>
<path d="M4330 6940 c0 -5 4 -10 9 -10 6 0 13 5 16 10 3 6 -1 10 -9 10 -9 0
-16 -4 -16 -10z"/>
<path d="M4440 6940 c0 -5 5 -10 11 -10 5 0 7 5 4 10 -3 6 -8 10 -11 10 -2 0
-4 -4 -4 -10z"/>
<path d="M4372 6911 c-16 -10 -12 -43 6 -49 8 -2 12 7 12 27 0 34 0 34 -18 22z"/>
<path d="M170 6386 c0 -8 7 -16 15 -20 10 -4 15 1 15 14 0 11 -7 20 -15 20 -8
0 -15 -6 -15 -14z"/>
<path d="M590 6380 c0 -15 7 -20 29 -20 39 0 61 -9 61 -26 0 -8 9 -14 20 -14
13 0 20 7 20 20 0 11 -7 20 -15 20 -8 0 -15 9 -15 20 0 17 -7 20 -50 20 -43 0
-50 -3 -50 -20z"/>
<path d="M717 6386 c-8 -20 2 -26 45 -26 31 0 38 3 38 20 0 17 -7 20 -39 20
-24 0 -41 -5 -44 -14z"/>
<path d="M480 6340 c0 -13 7 -20 20 -20 13 0 20 7 20 20 0 13 -7 20 -20 20
-13 0 -20 -7 -20 -20z"/>
<path d="M841 6283 c-1 -37 2 -43 19 -43 23 0 28 34 6 47 -7 4 -16 15 -19 23
-3 8 -6 -4 -6 -27z"/>
<path d="M920 6313 c1 -29 40 -41 40 -13 0 13 -7 20 -20 20 -11 0 -20 -3 -20
-7z"/>
<path d="M760 6260 c0 -13 7 -20 20 -20 13 0 20 7 20 20 0 13 -7 20 -20 20
-13 0 -20 -7 -20 -20z"/>
<path d="M1005 6150 c-7 -11 2 -30 14 -30 5 0 11 9 14 20 5 21 -16 29 -28 10z"/>
<path d="M770 6110 c0 -5 7 -10 15 -10 8 0 15 5 15 10 0 6 -7 10 -15 10 -8 0
-15 -4 -15 -10z"/>
<path d="M231 6045 c0 -6 -16 -9 -36 -7 -30 4 -35 1 -35 -17 0 -18 6 -21 40
-21 33 0 40 -3 40 -20 0 -13 7 -20 20 -20 13 0 20 7 20 20 0 13 -7 20 -19 20
-14 0 -21 8 -24 28 -2 15 -5 22 -6 17z"/>
<path d="M5 5989 c-4 -6 -4 -13 -1 -16 8 -8 36 5 36 17 0 13 -27 13 -35 -1z"/>
<path d="M120 5980 c0 -13 5 -18 15 -14 8 4 15 10 15 14 0 4 -7 10 -15 14 -10
4 -15 -1 -15 -14z"/>
<path d="M967 5985 c-7 -16 8 -29 23 -20 15 9 12 35 -4 35 -8 0 -16 -7 -19
-15z"/>
<path d="M1197 5980 c-4 -15 0 -20 14 -20 12 0 19 7 19 20 0 11 -6 20 -14 20
-7 0 -16 -9 -19 -20z"/>
<path d="M328 5943 c7 -3 16 -2 19 1 4 3 -2 6 -13 5 -11 0 -14 -3 -6 -6z"/>
<path d="M1018 5943 c7 -3 16 -2 19 1 4 3 -2 6 -13 5 -11 0 -14 -3 -6 -6z"/>
<path d="M19 5818 c0 -22 -1 -22 -8 -3 -6 14 -8 3 -9 -33 0 -47 3 -54 24 -62
13 -5 24 -14 24 -20 0 -5 7 -10 15 -10 11 0 15 12 15 50 0 43 -3 50 -20 50
-15 0 -20 7 -20 25 0 31 -20 33 -21 3z"/>
<path d="M1040 5799 c0 -16 2 -29 4 -29 2 0 11 -3 20 -6 13 -5 16 1 16 28 0
27 -4 34 -20 35 -16 1 -20 -4 -20 -28z"/>
<path d="M378 5797 c-6 -16 1 -37 13 -37 12 0 12 37 0 44 -5 3 -11 0 -13 -7z"/>
<path d="M119 5762 c-1 -4 0 -24 1 -44 1 -32 -2 -38 -19 -38 -14 0 -21 -6 -21
-20 0 -13 -7 -20 -20 -20 -11 0 -20 4 -20 9 0 5 -9 7 -19 4 -19 -5 -19 -18
-21 -309 -1 -242 2 -304 12 -304 9 0 9 -3 -2 -11 -12 -8 -9 -10 13 -6 15 2 27
0 27 -4 0 -5 -11 -9 -25 -9 -20 0 -25 -5 -25 -25 0 -18 5 -25 19 -25 14 0 22
-10 26 -32 4 -17 14 -38 21 -46 8 -7 14 -20 14 -28 0 -8 10 -14 25 -14 14 0
25 -4 25 -10 0 -5 7 -7 15 -4 10 4 13 2 10 -7 -9 -22 -66 -21 -85 1 -10 11
-29 20 -44 20 -24 0 -26 -4 -26 -39 0 -25 5 -41 15 -45 8 -3 15 -12 15 -20 0
-10 -6 -13 -15 -10 -13 5 -15 -30 -15 -285 l0 -291 30 0 c19 0 30 -5 30 -14 0
-17 22 -26 66 -26 33 0 34 -1 34 -40 0 -39 -1 -40 -28 -34 -48 10 -52 13 -45
30 5 14 3 14 -16 2 -15 -9 -18 -14 -7 -16 15 -3 28 -37 18 -46 -13 -14 -44 -4
-49 14 -3 11 -12 20 -20 20 -11 0 -13 -5 -8 -17 4 -10 6 -22 5 -28 -2 -5 -5
-304 -6 -663 -3 -433 0 -660 6 -673 7 -13 7 -19 0 -19 -6 0 -10 -53 -10 -150
0 -139 1 -150 20 -160 29 -15 29 -95 0 -103 -18 -5 -20 -14 -20 -76 l0 -71 98
0 c53 -1 269 -1 480 -1 l382 -1 0 -57 c0 -44 5 -64 20 -81 28 -32 30 -143 3
-138 -13 2 -19 14 -21 40 -3 33 -6 37 -39 43 -19 3 -63 5 -97 4 -50 -2 -62 0
-64 14 -2 9 -12 17 -23 17 -18 0 -19 -9 -19 -160 0 -153 -1 -160 -20 -160 -19
0 -20 7 -20 146 l0 145 -72 -1 c-119 -2 -128 -1 -128 15 0 8 -9 15 -20 15 -19
0 -20 -7 -20 -140 0 -133 -1 -140 -20 -140 -19 0 -20 7 -20 134 l0 134 -62 4
c-35 1 -96 1 -136 -2 -40 -3 -72 -1 -72 4 0 5 -2 7 -5 4 -3 -3 -8 -57 -11
-119 -8 -194 -22 -215 -23 -36 l-1 157 -30 0 c-23 0 -30 -4 -30 -20 0 -11 -7
-20 -15 -20 -13 0 -15 -58 -15 -460 l0 -460 80 0 c73 0 80 -2 80 -20 0 -18 -7
-20 -81 -20 -78 0 -80 -1 -77 -22 l3 -23 318 0 317 0 0 -178 c0 -165 -1 -178
-17 -175 -16 3 -18 19 -21 136 l-3 132 -182 2 c-100 0 -191 1 -202 1 -11 0
-64 -1 -117 -2 l-98 -1 0 -161 0 -160 100 5 100 5 0 -39 c0 -33 -3 -40 -20
-40 -19 0 -20 -7 -20 -140 0 -133 -1 -140 -20 -140 -19 0 -20 7 -20 140 l0
140 -44 0 c-79 0 -76 7 -76 -171 0 -105 4 -159 11 -159 5 0 7 -5 4 -10 -4 -6
20 -10 64 -10 41 0 71 4 71 10 0 6 15 10 33 10 24 0 28 -3 17 -10 -10 -7 19
-10 93 -10 l107 0 0 -25 c0 -18 5 -25 20 -25 14 0 20 7 20 21 0 33 18 59 37
52 15 -6 14 -7 -3 -14 -12 -5 0 -8 36 -8 39 -1 51 2 40 9 -11 7 2 10 43 10 31
0 57 -4 57 -10 0 -5 5 -10 11 -10 5 0 7 6 3 12 -5 9 -2 9 9 -1 9 -7 17 -24 17
-37 0 -35 27 -30 32 5 2 17 2 28 -2 26 -3 -2 -12 0 -20 6 -11 6 -4 9 23 9 23
0 36 -4 32 -10 -3 -5 -1 -10 4 -10 6 0 11 5 11 10 0 6 7 10 15 10 8 0 15 -4
15 -10 0 -6 74 -10 203 -10 134 0 197 4 187 10 -11 7 1 9 40 9 50 -2 52 -2 20
-9 -21 -5 24 -8 118 -9 l152 -1 0 -25 c0 -18 5 -25 20 -25 11 0 20 5 20 11 0
30 36 38 158 39 94 0 122 3 122 13 0 10 30 14 130 16 130 2 165 -3 139 -20 -8
-5 32 -9 99 -9 l112 0 0 -25 c0 -18 5 -25 20 -25 15 0 20 7 20 25 l0 25 400 0
c259 0 400 -4 401 -10 1 -5 2 -16 3 -22 2 -22 31 -14 34 10 3 21 7 22 108 22
l104 0 0 -25 c0 -21 5 -25 30 -25 23 0 31 5 36 25 l6 25 313 0 c317 0 368 -5
357 -38 -3 -9 32 -12 147 -12 l151 0 0 60 c0 57 -1 60 -25 60 -24 0 -25 3 -25
60 0 53 2 60 20 60 17 0 20 -7 20 -41 0 -31 4 -42 18 -45 15 -4 17 -15 14 -80
l-4 -74 31 0 c30 0 31 2 29 35 -1 19 1 38 6 42 12 13 25 -19 19 -49 l-6 -29
233 2 232 1 -5 24 c-2 13 -1 24 4 24 4 0 10 8 13 18 3 9 4 2 2 -15 -1 -19 2
-33 8 -33 6 0 4 -5 -4 -10 -10 -6 77 -10 256 -10 263 0 272 1 277 20 7 26 27
26 27 0 0 -17 7 -20 45 -20 l45 0 0 40 c0 34 3 40 21 40 20 0 21 -4 15 -40
l-6 -40 164 0 165 0 3 48 c2 34 7 47 18 47 11 0 16 -13 18 -47 l3 -48 89 0
c61 0 90 4 93 13 4 9 6 9 6 0 1 -8 14 -13 31 -13 26 0 30 4 29 23 -4 47 0 54
34 52 29 -1 32 -4 35 -38 3 -36 4 -37 45 -37 l42 0 -3 50 c-3 41 -1 50 12 50
13 0 16 -11 16 -50 0 -47 2 -50 25 -50 19 0 25 5 25 23 0 32 11 43 48 50 32 6
32 6 32 -33 l0 -40 80 0 80 0 1 48 c1 26 1 50 0 55 0 4 6 7 14 7 12 0 15 -13
15 -55 l0 -55 110 0 c107 0 110 1 111 23 l0 22 9 -22 9 -23 285 0 285 0 3 37
c2 27 8 39 21 41 14 3 17 -4 17 -37 l0 -41 40 0 40 0 0 80 c0 73 2 80 20 80
18 0 20 -7 20 -80 l0 -80 140 0 140 0 0 60 c0 45 4 60 14 60 18 0 26 -22 26
-76 l0 -44 259 1 260 0 3 42 c4 59 32 58 36 0 l3 -43 85 0 84 0 0 40 c0 40 13
53 24 24 3 -9 6 -27 6 -40 0 -21 4 -24 40 -24 l40 0 0 280 0 280 -153 0 -153
0 -10 37 c-5 23 -16 39 -26 41 -15 3 -18 -4 -18 -37 0 -39 -2 -41 -29 -41 -16
0 -32 6 -34 13 -4 9 -6 9 -6 0 -1 -10 -37 -13 -146 -13 -122 0 -145 2 -145 15
0 8 -7 15 -15 15 -8 0 -17 11 -21 25 -4 16 -13 25 -25 25 -15 0 -19 -7 -19
-40 l0 -40 -185 0 c-169 0 -185 1 -186 18 0 14 -2 14 -8 -3 -7 -16 -10 -12
-15 23 -6 32 -12 42 -27 42 -10 0 -19 -7 -19 -15 0 -8 -9 -19 -20 -25 -11 -6
-20 -17 -20 -25 0 -13 -28 -15 -179 -15 -99 0 -186 3 -195 6 -9 3 -16 14 -16
24 0 32 -11 50 -31 50 -15 0 -19 -7 -19 -40 l0 -40 -145 0 c-109 0 -145 3
-145 13 0 8 -3 8 -9 -2 -7 -11 -12 -3 -22 27 -16 55 -39 56 -39 2 l0 -40 -174
0 c-187 0 -189 0 -179 53 5 24 2 27 -21 27 -22 0 -26 -4 -26 -30 0 -30 -14
-41 -23 -17 -4 7 -8 3 -12 -10 -7 -23 -10 -23 -165 -23 -117 0 -160 3 -163 13
-4 10 -6 10 -6 0 -1 -7 -8 -13 -16 -13 -11 0 -12 5 -5 25 8 21 7 25 -10 25
-13 0 -18 5 -14 15 4 8 1 15 -5 15 -12 0 -19 -25 -23 -80 -2 -24 -8 -36 -20
-38 -13 -2 -18 3 -18 17 0 20 -5 21 -165 21 -150 0 -165 2 -166 18 0 15 -1 15
-8 -2 -7 -18 -8 -18 -14 -2 -4 10 -7 29 -7 42 0 17 -6 24 -20 24 -16 0 -20 -7
-21 -32 -1 -18 -1 -36 0 -40 2 -13 -17 -9 -22 5 -4 10 -6 10 -6 0 -1 -10 -46
-13 -191 -13 -147 0 -189 3 -188 13 2 6 -3 11 -10 9 -7 -1 -15 11 -18 28 -5
21 -12 30 -25 30 -15 0 -19 -8 -19 -40 l0 -40 -209 0 c-158 0 -211 3 -214 13
-4 9 -6 9 -6 0 -1 -8 -14 -13 -32 -13 -29 0 -31 2 -27 30 3 21 1 27 -6 20 -17
-17 -28 -11 -21 11 6 17 3 20 -17 17 -19 -2 -24 -10 -26 -40 l-3 -38 -142 0
-142 0 -18 40 c-19 44 -57 57 -57 20 0 -11 -7 -20 -15 -20 -13 0 -15 83 -17
678 -1 372 -3 697 -4 722 -2 25 -3 53 -3 63 -1 10 -9 17 -21 17 -13 0 -20 7
-20 20 0 19 -7 20 -120 20 -113 0 -120 1 -120 20 0 18 -7 20 -80 20 l-80 0 0
80 c0 73 -2 80 -20 80 -17 0 -20 7 -20 44 0 36 -3 44 -17 42 -15 -1 -19 9 -21
56 -3 50 -6 58 -22 58 -13 0 -20 7 -20 20 0 11 -7 20 -15 20 -8 0 -15 9 -15
20 0 15 -7 20 -25 20 -14 0 -24 3 -24 8 4 25 -4 32 -41 32 -33 0 -40 3 -40 20
0 13 -7 20 -20 20 -13 0 -20 7 -20 20 0 11 -7 20 -15 20 -12 0 -15 20 -15 120
l0 120 -45 0 c-38 0 -45 3 -45 20 0 13 -7 20 -20 20 -13 0 -20 7 -20 19 0 11
-9 23 -20 26 -11 3 -20 13 -20 21 0 13 -24 19 -57 15 -10 -1 -13 24 -13 99 l0
100 -25 0 c-22 0 -25 4 -25 40 0 33 -3 40 -20 40 -17 0 -20 7 -20 40 0 39 -1
40 -35 40 -28 0 -35 4 -35 20 0 17 -7 20 -45 20 -38 0 -45 3 -45 20 0 13 -7
20 -20 20 -13 0 -20 7 -20 20 0 16 -7 20 -34 20 -25 0 -35 5 -39 20 -5 18 -14
20 -80 20 -62 0 -76 3 -82 18 -3 9 -5 109 -4 222 2 195 1 205 -17 205 -17 0
-19 7 -16 58 l4 57 -31 0 -30 0 2 -117 c2 -105 0 -118 -15 -121 -13 -2 -18 3
-18 17 0 14 -6 21 -20 21 -17 0 -20 -7 -20 -44 0 -34 -4 -45 -19 -49 -16 -4
-18 -16 -20 -90 -2 -85 -2 -86 23 -93 18 -4 26 -13 26 -28 0 -17 2 -18 10 -6
8 12 10 11 10 -7 0 -25 27 -56 41 -48 5 4 9 -3 9 -14 0 -14 6 -21 20 -21 13 0
20 -7 20 -20 0 -13 7 -20 20 -20 13 0 20 7 20 20 0 13 7 20 20 20 11 0 19 -3
19 -7 -6 -37 39 -48 48 -13 10 37 33 23 33 -20 l0 -40 53 -1 c28 -1 62 0 75 1
16 1 22 -4 22 -19 0 -21 10 -25 63 -21 21 1 27 -3 27 -18 0 -11 9 -22 20 -25
11 -3 20 -12 20 -20 0 -8 9 -17 20 -20 19 -5 20 -14 20 -141 0 -111 3 -136 14
-136 8 0 18 -9 21 -20 6 -18 34 -26 68 -21 4 0 7 -8 7 -19 0 -15 7 -20 25 -20
20 0 25 -5 25 -26 0 -20 4 -25 16 -20 10 4 18 0 21 -13 3 -11 13 -21 24 -24
14 -4 19 -14 19 -41 0 -30 3 -36 21 -36 21 0 22 -3 16 -79 -4 -72 -3 -80 14
-84 10 -3 19 -12 19 -21 0 -10 9 -16 24 -16 15 0 26 -7 29 -20 3 -11 12 -20
21 -20 11 0 16 -9 16 -26 0 -22 4 -25 28 -24 44 3 52 1 52 -15 0 -8 9 -15 19
-15 16 0 20 -9 23 -60 3 -63 4 -62 -47 -60 -19 1 -30 -28 -27 -70 3 -41 1 -48
-17 -53 -25 -6 -29 -1 -33 46 -1 20 -6 34 -10 31 -9 -6 -50 14 -60 30 -4 6 -8
21 -8 34 0 15 -6 22 -20 22 -11 0 -20 7 -20 15 0 9 -12 20 -26 25 -18 7 -24
15 -20 26 4 12 2 15 -9 10 -9 -3 -20 3 -27 14 -7 11 -18 20 -25 20 -6 0 -15 9
-18 20 -3 11 -10 20 -15 20 -4 0 -10 -9 -13 -20 -8 -31 -47 -27 -47 5 0 23 -4
25 -40 23 -32 -1 -40 -5 -40 -20 0 -22 -38 -25 -54 -4 -6 8 -23 18 -38 22 -24
5 -28 3 -28 -15 0 -16 6 -21 26 -21 23 0 25 -3 22 -42 -2 -32 -8 -44 -21 -46
-12 -2 -20 4 -24 16 -3 11 -13 22 -24 25 -10 3 -19 12 -19 20 0 9 -8 18 -19
22 -12 4 -21 19 -25 45 -3 22 -10 39 -14 39 -21 -4 -32 3 -33 19 0 10 -3 12
-6 4 -2 -6 -10 -9 -15 -5 -8 4 -9 -2 -5 -18 4 -13 7 -28 7 -33 0 -4 7 -6 15
-2 11 4 15 -1 15 -19 0 -18 -5 -25 -20 -25 -13 0 -20 7 -20 20 0 13 -7 20 -20
20 -13 0 -20 7 -20 20 0 11 -3 19 -7 19 -22 -4 -33 3 -33 20 0 10 -9 21 -20
24 -15 4 -20 14 -20 39 0 19 3 37 6 41 11 11 34 -5 34 -24 0 -12 7 -19 20 -19
13 0 20 7 20 20 0 13 -7 20 -20 20 -13 0 -20 7 -20 20 0 13 -7 20 -20 20 -13
0 -20 -7 -20 -20 0 -13 -7 -20 -20 -20 -17 0 -20 -7 -20 -40 0 -33 -3 -40 -20
-40 -14 0 -20 7 -20 24 0 35 10 56 26 56 22 0 16 37 -6 43 -15 4 -20 14 -20
37 0 23 -5 33 -20 37 -13 3 -20 14 -20 29 0 20 -5 24 -29 24 -17 0 -33 4 -36
10 -3 6 -17 10 -31 10 -21 0 -29 9 -25 33 0 4 -8 7 -19 7 -16 0 -20 -7 -20
-35 0 -28 -4 -35 -20 -35 -17 0 -20 7 -20 40 0 33 3 40 20 40 13 0 20 7 20 20
0 13 7 20 20 20 13 0 20 7 20 20 0 13 -7 20 -20 20 -13 0 -20 7 -20 20 0 13
-7 20 -20 20 -14 0 -20 -7 -20 -21 0 -15 -5 -20 -22 -17 -13 2 -23 10 -23 18
0 9 -8 14 -18 12 -12 -2 -17 4 -17 23 0 18 -5 25 -20 25 -13 0 -20 -7 -20 -20
0 -13 -7 -20 -20 -20 -11 0 -20 7 -20 15 0 9 -7 18 -16 22 -20 7 -74 62 -74
74 0 5 -7 9 -15 9 -8 0 -15 9 -15 20 0 13 7 20 20 20 13 0 20 7 20 20 0 13 -7
20 -20 20 -13 0 -20 -7 -20 -20 0 -13 -7 -20 -20 -20 -17 0 -20 7 -20 40 l0
41 41 -4 c32 -3 39 -1 35 10 -4 8 -6 17 -6 19 0 2 -7 4 -15 4 -9 0 -15 9 -15
21 0 12 -8 23 -19 26 -13 3 -21 17 -25 46 -4 23 -10 37 -14 32 -9 -13 -35 -13
-44 0 -4 6 -8 2 -8 -7 0 -10 7 -18 15 -18 8 0 17 -11 21 -25 3 -14 12 -25 20
-25 8 0 14 -10 14 -24 0 -31 -34 -29 -38 2 -2 14 -11 22 -23 22 -12 0 -19 7
-19 20 0 13 -7 20 -20 20 -12 0 -20 7 -20 16 0 9 -9 18 -20 21 -11 3 -20 14
-20 24 0 12 -7 19 -20 19 -17 0 -20 7 -20 52 0 48 -1 50 -15 32 -14 -19 -14
-19 -15 3 0 18 -8 23 -45 29 -35 5 -45 10 -45 25 0 12 -7 19 -20 19 -18 0 -20
7 -20 55 0 50 -2 55 -25 61 -21 5 -25 12 -25 45 0 42 -17 53 -24 17 -14 -67
-13 -78 5 -83 11 -4 19 -15 18 -28 l0 -22 -16 23 c-8 12 -21 22 -28 22 -7 0
-15 6 -18 14 -3 8 -16 16 -29 18 -26 3 -33 43 -8 43 8 0 18 8 22 18 4 9 14 17
23 17 11 0 15 11 15 39 0 38 -1 39 -32 37 -32 -1 -33 1 -38 44 -3 30 -9 44
-18 42 -8 -1 -16 6 -19 17 -3 10 -13 21 -24 24 -10 3 -19 12 -19 21 0 9 -7 16
-16 16 -9 0 -18 9 -21 20 -3 11 -14 20 -24 20 -15 0 -19 7 -19 40 0 22 -3 39
-7 39 -23 -4 -33 3 -33 21 0 13 -7 20 -20 20 -15 0 -20 7 -20 25 0 18 5 25 20
25 16 0 20 7 20 30 0 23 -4 30 -20 30 -13 0 -22 9 -26 25 -3 14 -12 25 -19 25
-7 0 -15 9 -18 20 -3 11 -11 19 -19 18 -9 -2 -14 10 -16 40 -3 34 -7 42 -23
42 -12 0 -19 7 -19 20 0 13 -7 20 -20 20 -13 0 -20 7 -20 20 0 13 -7 20 -20
20 -12 0 -20 7 -20 16 0 9 -9 18 -20 21 -13 3 -20 14 -20 29 0 35 29 28 43 -9
11 -29 32 -14 33 24 1 119 1 119 37 120 43 1 75 13 59 23 -18 11 -15 66 3 66
8 0 15 5 15 10 0 6 -7 10 -15 10 -9 0 -15 9 -15 23 0 14 -6 24 -15 24 -9 0
-15 -10 -15 -24 0 -18 -5 -23 -25 -23 -20 0 -25 5 -25 25 0 18 -5 25 -20 25
-13 0 -20 7 -20 20 0 13 -7 20 -19 20 -16 0 -20 8 -23 38 -2 23 -8 36 -16 34
-7 -1 -18 9 -24 23 -13 30 -38 33 -38 5 0 -13 7 -20 20 -20 17 0 20 -7 20 -40
0 -33 3 -40 20 -40 13 0 20 -7 20 -20 0 -13 -7 -20 -20 -20 -11 0 -20 7 -20
15 0 8 -9 15 -20 15 -17 0 -20 7 -20 38 0 32 -5 41 -25 50 -14 6 -25 18 -25
27 0 8 -7 15 -15 15 -9 0 -15 9 -15 21 0 15 -5 19 -15 15 -11 -4 -19 3 -25 19
-5 14 -16 25 -23 25 -17 0 -31 85 -21 125 5 19 3 26 -7 25 -44 -6 -69 1 -69
19 0 11 -9 23 -20 26 -11 3 -20 15 -20 26 0 19 -3 21 -55 23 -24 1 -29 5 -27
21 2 11 1 17 -3 13 -11 -11 -45 10 -45 27 0 8 -7 15 -15 15 -8 0 -15 7 -15 15
0 8 -7 15 -15 15 -9 0 -20 11 -25 25 -5 14 -16 25 -24 25 -9 0 -20 9 -26 20
-6 11 -17 20 -25 20 -8 0 -15 7 -15 16 0 8 -4 12 -10 9 -5 -3 -10 -3 -10 2 0
4 -19 8 -43 8 -41 0 -42 -1 -45 -38 -3 -35 -5 -37 -39 -37 -26 0 -36 -5 -40
-20 -8 -29 -45 -27 -41 3 2 14 9 21 21 21 11 -1 17 6 19 22 0 13 1 29 2 35 1
13 -43 33 -45 21z m1 -141 c0 -19 -23 -35 -34 -24 -14 15 -5 43 14 43 13 0 20
-7 20 -19z m40 -56 c0 -28 4 -35 20 -35 14 0 20 -7 20 -21 0 -12 8 -23 20 -26
13 -3 20 -14 20 -29 0 -17 -6 -24 -20 -24 -14 0 -20 7 -20 21 0 12 -8 23 -20
26 -13 3 -20 14 -20 29 0 13 -9 28 -20 34 -12 6 -20 21 -20 35 0 18 5 25 20
25 16 0 20 -7 20 -35z m126 -40 c-6 -30 -4 -35 12 -35 19 0 37 -35 27 -51 -8
-12 -45 3 -45 18 0 8 -9 17 -20 20 -16 4 -20 14 -20 44 0 35 2 39 26 39 25 0
26 -2 20 -35z m76 -132 c10 -22 21 -29 51 -31 28 -2 37 -7 33 -17 -3 -9 3 -15
17 -17 17 -2 23 -11 25 -36 2 -18 10 -36 18 -39 8 -3 14 -16 14 -29 0 -17 6
-24 20 -24 11 0 23 -6 26 -14 3 -8 12 -12 20 -9 16 6 20 -22 4 -32 -16 -10 -1
-25 26 -25 23 0 24 -3 24 -60 0 -53 -2 -60 -20 -60 -17 0 -20 7 -20 40 0 33
-3 40 -20 40 -11 0 -20 7 -20 15 0 8 -9 15 -20 15 -17 0 -20 7 -20 45 0 32 -4
45 -14 45 -8 0 -18 9 -21 20 -3 11 -15 20 -26 20 -12 0 -19 7 -19 20 0 13 -7
20 -20 20 -13 0 -20 7 -20 20 0 14 -7 20 -21 20 -17 0 -20 5 -17 23 4 20 1 23
-19 19 -19 -4 -23 0 -23 20 0 45 23 51 42 11z m-242 -153 c0 -33 3 -40 20 -40
13 0 20 -7 20 -19 0 -12 7 -18 17 -17 10 0 22 -9 28 -21 5 -13 16 -23 23 -23
7 0 15 -7 18 -15 4 -8 12 -15 20 -15 8 0 14 -5 14 -11 0 -6 6 -17 14 -25 11
-11 16 -11 19 -1 3 6 6 0 6 -15 1 -19 -4 -28 -14 -28 -8 0 -15 8 -15 19 0 14
-6 17 -25 13 -29 -5 -33 -32 -6 -39 10 -2 24 -16 30 -29 6 -13 15 -24 21 -24
5 0 10 -7 10 -15 0 -8 -6 -15 -14 -15 -8 0 -18 -9 -21 -20 -4 -14 -15 -20 -36
-20 -32 0 -41 -25 -11 -33 9 -3 -11 -5 -44 -6 -47 -1 -63 3 -68 15 -3 9 -2 12
5 9 6 -4 8 2 4 18 -9 35 14 45 86 40 55 -5 59 -3 59 16 0 14 -6 21 -20 21 -13
0 -20 7 -20 19 0 10 -9 21 -20 24 -11 3 -20 12 -20 21 0 9 -8 16 -20 16 -14 0
-20 7 -20 24 0 16 5 23 16 22 25 -2 29 24 5 31 -12 3 -21 12 -21 20 0 8 -9 17
-20 20 -11 3 -20 14 -20 24 0 14 -7 19 -25 19 -17 0 -25 5 -25 18 0 37 13 62
31 62 15 0 19 -7 19 -40z m520 5 c0 -28 4 -35 19 -35 13 0 21 -8 23 -22 2 -15
9 -22 21 -22 12 1 17 -5 17 -22 0 -17 -6 -24 -20 -24 -12 0 -20 7 -20 16 0 9
-9 18 -20 21 -11 3 -20 14 -20 24 0 12 -7 19 -20 19 -17 0 -20 7 -20 40 0 33
3 40 20 40 16 0 20 -7 20 -35z m-320 -14 c0 -11 9 -23 20 -26 11 -3 20 -13 20
-21 0 -8 8 -14 18 -14 9 0 22 -10 27 -22 7 -17 20 -24 46 -26 35 -3 37 -4 35
-40 -1 -31 2 -37 22 -40 32 -5 30 -42 -3 -42 -18 0 -25 5 -25 20 0 13 -7 20
-20 20 -13 0 -20 7 -20 20 0 13 -7 20 -20 20 -13 0 -20 7 -20 20 0 13 -7 20
-20 20 -13 0 -20 7 -20 20 0 13 -7 20 -20 20 -13 0 -20 7 -20 20 0 13 -7 20
-19 20 -20 0 -35 25 -25 41 10 17 44 10 44 -10z m481 -198 c0 -5 2 -18 3 -30
3 -30 7 -33 45 -36 25 -2 31 -6 31 -24 0 -14 6 -23 15 -23 8 0 15 9 15 20 0
15 7 20 25 20 24 0 25 -3 25 -60 0 -53 -2 -60 -20 -60 -13 0 -20 7 -20 20 0
15 -7 20 -24 20 -16 0 -27 7 -31 20 -4 13 -15 20 -32 20 -16 0 -27 7 -30 20
-3 11 -14 20 -24 20 -12 0 -19 7 -19 20 0 13 -7 20 -20 20 -13 0 -20 7 -20 20
0 17 7 20 40 20 22 0 40 -3 41 -7z m239 -13 c0 -13 -7 -20 -20 -20 -13 0 -20
7 -20 20 0 13 7 20 20 20 13 0 20 -7 20 -20z m-360 -46 c0 -17 -5 -24 -20 -24
-14 0 -20 7 -20 24 0 23 17 38 33 29 4 -2 7 -15 7 -29z m467 4 c-3 -8 -6 -5
-6 6 -1 11 2 17 5 13 3 -3 4 -12 1 -19z m-1027 -32 c0 -8 -7 -17 -16 -20 -23
-9 -24 -8 -24 14 0 13 7 20 20 20 11 0 20 -6 20 -14z m240 -138 c0 -17 -3 -28
-7 -25 -8 9 -32 -24 -33 -45 0 -15 -10 -18 -60 -18 l-60 0 0 40 0 40 41 0 c36
0 41 2 36 20 -5 18 0 20 39 20 43 0 44 -1 44 -32z m200 -3 c0 -26 -4 -35 -17
-36 -10 0 -26 -2 -37 -4 -11 -2 -20 3 -23 16 -3 10 -14 19 -24 19 -12 0 -19 7
-19 20 0 18 7 20 60 20 l60 0 0 -35z m-402 -113 c3 -20 0 -23 -17 -17 -12 4
-21 2 -21 -4 0 -6 5 -11 10 -11 6 0 10 -4 10 -10 0 -5 -13 -10 -30 -10 -24 0
-30 -4 -30 -21 0 -14 -5 -19 -17 -17 -13 2 -19 14 -21 39 -3 33 -1 37 27 42
17 4 31 13 31 20 0 9 10 14 28 13 20 -1 28 -7 30 -24z m364 10 c-1 -8 7 -16
18 -19 11 -3 20 -14 20 -24 0 -12 7 -19 20 -19 16 0 20 -6 18 -30 -1 -20 -6
-26 -12 -20 -6 6 -50 10 -98 10 -74 0 -88 3 -88 16 0 9 9 18 20 21 23 6 27 41
5 49 -11 5 -12 9 -2 20 16 19 103 15 99 -4z m278 -2 c0 -14 7 -20 21 -20 12 0
23 8 26 20 10 37 33 23 33 -20 0 -33 3 -40 20 -40 15 0 20 -7 20 -25 0 -18 -5
-25 -20 -25 -26 0 -26 -20 0 -27 10 -3 22 -14 25 -24 4 -10 12 -18 18 -16 7 1
13 -13 15 -36 3 -30 9 -40 28 -48 29 -11 27 -33 -3 -37 -14 -2 -22 4 -26 18
-3 13 -10 18 -21 14 -12 -5 -16 0 -16 20 0 19 -5 26 -20 26 -13 0 -20 7 -20
20 0 13 -7 20 -20 20 -14 0 -20 7 -20 23 0 38 -12 67 -26 67 -9 0 -14 12 -14
35 0 28 -4 35 -20 35 -13 0 -20 7 -20 20 0 13 7 20 20 20 13 0 20 -7 20 -20z
m-464 -58 c-11 -10 -15 4 -8 28 l7 25 3 -23 c2 -13 1 -26 -2 -30z m-23 -8 c3
-3 3 -12 0 -20 -4 -11 -9 -12 -19 -3 -8 6 -11 15 -8 20 6 10 18 12 27 3z m205
-91 c2 -14 10 -23 20 -23 14 0 17 -11 19 -60 2 -47 -1 -60 -12 -60 -11 0 -15
12 -15 40 0 36 -2 40 -25 40 -20 0 -25 5 -25 25 0 19 -5 25 -21 25 -17 0 -19
3 -10 13 6 8 9 16 6 18 -2 3 10 5 28 4 25 0 33 -5 35 -22z m118 5 c0 -13 -6
-29 -13 -36 -11 -11 -13 -8 -13 16 0 17 6 33 13 35 6 3 12 6 12 6 1 1 1 -9 1
-21z m-425 -10 c0 -16 2 -18 6 -8 15 39 53 22 59 -26 2 -20 -2 -24 -26 -24
-37 0 -61 -10 -54 -22 3 -5 -3 -12 -15 -15 -12 -3 -21 -13 -21 -24 0 -12 -7
-19 -20 -19 -18 0 -20 7 -20 65 0 58 2 65 20 65 11 0 20 7 20 15 0 9 9 15 25
15 19 0 25 -5 26 -22z m787 0 c-2 -13 -10 -23 -18 -23 -8 0 -16 10 -18 23 -3
17 2 22 18 22 16 0 21 -5 18 -22z m-598 -37 c0 -10 9 -21 20 -24 15 -4 20 -14
20 -41 0 -35 -1 -36 -40 -36 -33 0 -40 4 -40 19 0 10 -8 21 -18 23 -13 4 -18
13 -16 29 1 13 3 30 3 37 1 7 15 12 36 12 28 0 35 -4 35 -19z m-343 -13 c-3
-8 -6 -5 -6 6 -1 11 2 17 5 13 3 -3 4 -12 1 -19z m604 -45 c26 -7 25 -43 -1
-43 -11 0 -20 6 -20 14 0 8 -9 18 -20 21 -25 8 -26 29 -2 53 16 17 17 16 20
-11 2 -19 10 -31 23 -34z m59 22 c0 -8 11 -17 25 -21 28 -7 27 -6 19 -28 -3
-9 -15 -16 -25 -16 -12 0 -19 -7 -19 -20 0 -13 7 -20 20 -20 13 0 20 -7 20
-20 0 -13 7 -20 20 -20 11 0 20 6 20 14 0 8 -9 18 -20 21 -11 3 -20 15 -20 26
0 12 7 19 20 19 14 0 20 -7 20 -21 0 -16 4 -19 20 -14 16 5 20 2 20 -19 0 -19
5 -26 19 -26 10 0 21 -9 24 -20 3 -13 10 -18 21 -14 12 5 16 0 16 -20 0 -18
-5 -26 -17 -26 -34 0 -63 12 -63 26 0 8 -9 14 -20 14 -13 0 -20 -7 -20 -20 0
-14 7 -20 21 -20 15 0 20 -5 17 -22 -2 -13 -10 -23 -18 -23 -8 0 -16 10 -18
23 -2 14 -10 22 -23 22 -15 0 -19 7 -19 36 0 27 -5 37 -20 41 -11 3 -20 13
-20 23 0 12 -9 20 -22 22 -13 2 -23 10 -23 18 0 8 10 16 23 18 28 4 30 38 2
45 -11 3 -20 12 -20 21 0 9 8 16 20 16 11 0 20 -7 20 -15z m-442 -68 c3 -31 0
-37 -15 -37 -15 0 -20 9 -21 41 -3 34 0 40 15 37 13 -2 19 -14 21 -41z m280
-54 c-5 -26 -38 -29 -38 -4 0 15 6 21 21 21 14 0 19 -5 17 -17z m-48 -38 c0
-8 -4 -15 -10 -15 -5 0 -10 7 -10 15 0 8 5 15 10 15 6 0 10 -7 10 -15z m690
-85 c0 -13 7 -20 20 -20 13 0 20 -7 20 -20 0 -13 7 -20 20 -20 13 0 20 -7 20
-20 0 -13 7 -20 19 -20 10 0 21 -9 24 -20 3 -13 10 -18 21 -14 14 5 16 -4 16
-65 0 -64 -2 -71 -20 -71 -15 0 -20 7 -20 26 0 33 -33 30 -38 -4 -5 -31 -40
-29 -48 3 -3 14 -12 25 -20 25 -8 0 -14 9 -14 20 0 13 -7 20 -20 20 -13 0 -20
7 -20 20 0 13 7 20 20 20 11 0 20 -6 20 -14 0 -7 9 -16 20 -19 12 -3 20 -14
20 -26 0 -14 6 -21 20 -21 18 0 20 7 20 55 0 47 -3 55 -19 55 -12 0 -21 9 -25
25 -4 14 -13 25 -21 25 -8 0 -15 9 -15 20 0 13 -7 20 -20 20 -13 0 -20 -7 -20
-20 0 -13 7 -20 20 -20 13 0 20 -7 20 -19 0 -10 -9 -21 -20 -24 -16 -4 -20 0
-20 19 0 17 -6 24 -20 24 -13 0 -20 7 -20 19 0 10 9 21 20 24 11 3 20 12 20
21 0 9 8 16 20 16 13 0 20 -7 20 -20z m-560 -54 c0 -25 5 -35 20 -39 12 -3 20
-14 20 -26 0 -14 6 -21 19 -21 18 0 34 -25 30 -46 -4 -21 2 -34 15 -34 19 0
30 -32 14 -42 -19 -12 -33 -4 -36 20 -2 14 -11 22 -23 22 -16 0 -19 7 -19 40
0 33 -4 40 -19 40 -10 0 -21 9 -24 20 -3 11 -11 19 -18 18 -7 -2 -18 7 -24 20
-5 12 -15 22 -22 22 -7 0 -13 9 -13 20 0 17 7 20 40 20 39 0 40 -1 40 -34z
m-400 20 c0 -2 -7 -9 -15 -16 -12 -10 -15 -10 -15 4 0 9 7 16 15 16 8 0 15 -2
15 -4z m280 -66 c0 -33 -3 -40 -20 -40 -17 0 -20 7 -20 40 0 33 3 40 20 40 17
0 20 -7 20 -40z m360 -40 c0 -33 -3 -40 -20 -40 -17 0 -20 7 -20 40 0 33 3 40
20 40 17 0 20 -7 20 -40z m80 20 c0 -15 7 -20 26 -20 20 0 25 -4 22 -22 -2
-18 -10 -22 -43 -22 -29 -1 -41 -6 -43 -18 -2 -12 2 -15 17 -11 18 4 21 1 21
-24 0 -25 -4 -30 -22 -29 -16 1 -24 8 -26 24 -2 12 -10 22 -18 22 -22 0 -17
37 6 43 15 4 20 14 20 41 0 29 4 36 20 36 13 0 20 -7 20 -20z m-679 -77 c1
-10 1 -23 0 -30 -1 -7 7 -18 19 -25 27 -17 26 -46 -2 -50 -13 -2 -23 -10 -23
-18 0 -8 10 -16 23 -18 14 -2 22 -10 22 -23 0 -13 7 -19 21 -19 12 0 23 -8 26
-20 3 -11 12 -20 19 -20 8 0 14 -9 14 -20 0 -13 -7 -20 -19 -20 -10 0 -21 9
-24 20 -3 11 -12 20 -21 20 -9 0 -16 8 -16 19 0 10 -9 21 -20 24 -18 5 -20 0
-20 -39 0 -37 3 -44 20 -44 14 0 20 -7 20 -23 0 -31 -38 -35 -42 -4 -2 14 -10
21 -21 21 -14 -2 -17 7 -17 62 0 57 -2 64 -20 64 -13 0 -20 7 -20 20 0 22 -16
27 -23 8 -2 -7 -8 -1 -12 14 -4 15 -4 32 0 37 10 17 65 13 70 -4 3 -8 7 -22
10 -30 6 -20 35 -7 35 16 0 12 -7 19 -20 19 -17 0 -20 7 -20 40 0 33 3 40 20
40 12 0 20 -7 21 -17z m159 -3 c0 -10 -9 -24 -20 -30 -18 -10 -20 -8 -20 20 0
23 4 30 20 30 13 0 20 -7 20 -20z m80 -69 c0 -17 -6 -31 -16 -35 -24 -9 -24
-9 -24 29 0 28 4 35 20 35 15 0 20 -7 20 -29z m40 -75 c0 -39 -2 -44 -20 -39
-16 4 -20 14 -20 44 0 32 3 39 20 39 17 0 20 -7 20 -44z m482 7 c2 -31 7 -39
26 -41 17 -3 22 -9 20 -24 -4 -28 -48 -36 -48 -9 0 10 -9 21 -20 24 -16 4 -20
14 -20 46 0 34 3 41 19 41 16 0 20 -8 23 -37z m-880 -18 c4 -21 1 -25 -18 -25
-17 0 -24 -6 -24 -20 0 -14 -7 -20 -21 -20 -15 0 -20 5 -17 23 2 12 10 22 18
22 8 0 15 7 16 15 2 27 4 30 23 30 12 0 20 -9 23 -25z m558 4 c0 -12 8 -23 20
-26 16 -4 20 -14 20 -44 0 -32 -3 -39 -20 -39 -13 0 -20 -7 -20 -20 0 -29 38
-27 42 3 2 12 10 22 18 22 8 0 16 -10 18 -22 3 -18 -2 -23 -17 -23 -14 0 -21
-6 -21 -20 0 -13 -7 -20 -20 -20 -13 0 -20 7 -20 20 0 13 -7 20 -19 20 -16 0
-20 -8 -23 -42 -2 -30 -8 -43 -18 -43 -11 0 -16 15 -18 63 l-3 62 41 0 40 0 0
40 c0 36 -2 40 -25 40 -20 0 -25 5 -25 25 0 20 5 25 25 25 19 0 25 -5 25 -21z
m857 -26 c-3 -10 -5 -4 -5 12 0 17 2 24 5 18 2 -7 2 -21 0 -30z m-267 17 c0
-5 -2 -10 -4 -10 -3 0 -8 5 -11 10 -3 6 -1 10 4 10 6 0 11 -4 11 -10z m-430
-51 c0 -32 4 -42 20 -46 11 -3 20 -14 20 -24 0 -14 7 -19 26 -19 24 0 54 -20
54 -35 0 -4 -9 -5 -20 -2 -19 5 -24 -3 -21 -30 1 -8 -10 -13 -31 -12 -18 0
-27 3 -20 6 6 2 12 20 12 39 0 27 -4 34 -20 34 -13 0 -20 7 -20 20 0 13 -7 20
-20 20 -13 0 -20 7 -20 20 0 14 -6 20 -17 18 -13 -2 -19 5 -21 25 -3 26 -1 27
37 27 l41 0 0 -41z m394 15 c3 -9 6 -27 6 -40 0 -17 6 -24 20 -24 17 0 20 7
20 41 l0 40 38 -3 c34 -3 37 -6 40 -35 3 -33 32 -49 32 -18 0 9 9 15 25 15 23
0 25 -4 25 -40 0 -33 -3 -40 -20 -40 -14 0 -20 -7 -20 -21 0 -15 -5 -20 -22
-17 -13 2 -23 10 -24 18 -4 62 -3 60 -39 60 -34 0 -35 -1 -35 -40 l0 -40 -41
0 c-38 0 -40 1 -37 28 2 15 8 27 15 27 23 0 27 16 5 22 -18 4 -22 13 -22 44 0
40 22 55 34 23z m1286 -84 l0 -100 -25 0 -25 0 0 100 0 100 25 0 25 0 0 -100z
m-932 47 c5 -24 -15 -21 -21 4 -3 13 -1 19 6 16 7 -2 13 -11 15 -20z m-438
-42 c0 -14 -4 -25 -10 -25 -5 0 -10 11 -10 25 0 14 5 25 10 25 6 0 10 -11 10
-25z m365 -5 c-3 -5 -10 -10 -16 -10 -5 0 -9 5 -9 10 0 6 7 10 16 10 8 0 12
-4 9 -10z m-1075 -40 c0 -13 7 -20 20 -20 17 0 20 -7 20 -39 0 -31 -4 -41 -20
-46 -21 -7 -28 -25 -9 -25 6 0 9 -6 6 -14 -3 -8 1 -20 9 -26 12 -11 14 -6 14
29 0 34 3 41 20 41 16 0 20 -7 20 -35 0 -28 5 -37 24 -45 18 -7 26 -18 28 -42
l3 -33 22 24 c23 25 43 21 43 -10 0 -12 -7 -19 -20 -19 -11 0 -20 -7 -20 -15
0 -15 6 -18 50 -19 21 -1 26 -7 30 -41 5 -39 6 -40 42 -39 44 1 51 -10 42 -77
-5 -39 -10 -49 -25 -49 -13 0 -19 7 -19 21 0 14 -5 19 -17 17 -24 -4 -28 -27
-6 -35 38 -14 44 -43 8 -43 -18 0 -25 5 -25 20 0 13 -7 20 -20 20 -13 0 -20 7
-20 19 0 10 -9 21 -20 24 -30 8 -27 47 4 47 19 0 23 -4 19 -19 -3 -12 2 -20
16 -24 19 -4 21 -1 20 31 0 21 -3 32 -5 25 -9 -22 -34 -1 -34 28 0 22 -5 29
-19 29 -16 0 -20 -8 -23 -37 -2 -27 -8 -39 -20 -41 -15 -3 -18 4 -18 37 0 34
-3 41 -20 41 -13 0 -20 7 -20 20 0 13 -7 20 -20 20 -16 0 -20 7 -20 34 0 25
-5 35 -20 39 -12 3 -20 14 -20 26 0 14 -6 21 -20 21 -11 0 -20 7 -20 15 0 8
-7 15 -15 15 -14 0 -41 38 -32 46 3 3 23 6 46 7 32 1 41 5 41 19 0 15 -8 18
-45 18 -38 0 -45 3 -45 20 0 15 7 20 25 20 18 0 25 5 25 20 0 13 7 20 20 20
13 0 20 -7 20 -20z m680 0 c0 -13 7 -20 20 -20 15 0 20 -7 20 -25 0 -16 6 -25
15 -25 8 0 15 -6 15 -14 0 -9 -7 -12 -20 -9 -11 3 -20 9 -20 14 0 5 -7 9 -15
9 -8 0 -15 -7 -15 -16 0 -13 -7 -15 -31 -10 -17 3 -44 6 -60 6 -28 0 -29 1
-29 55 l0 55 60 0 c53 0 60 -2 60 -20z m470 0 c6 -11 20 -20 30 -20 17 0 20
-7 20 -40 0 -33 -3 -40 -19 -40 -11 0 -22 -9 -26 -19 -4 -13 -12 -18 -21 -14
-13 5 -13 7 -2 14 10 7 10 9 -2 10 -8 0 -24 3 -35 6 -11 3 -44 4 -72 4 -56 -2
-62 2 -38 25 8 9 15 24 15 35 0 18 6 20 43 17 37 -2 42 0 45 20 4 29 47 30 62
2z m-1270 -45 c0 -33 -34 -26 -38 8 -3 21 0 25 17 20 14 -3 21 -14 21 -28z
m997 9 c-3 -3 -12 -4 -19 -1 -8 3 -5 6 6 6 11 1 17 -2 13 -5z m-1117 -39 c0
-19 -5 -25 -21 -25 -14 0 -19 -5 -17 -17 2 -10 10 -17 16 -15 7 1 17 -9 22
-23 5 -14 16 -25 24 -25 10 0 16 -13 18 -37 2 -29 7 -37 20 -35 9 1 19 -6 23
-18 3 -11 12 -20 20 -20 7 0 16 -11 19 -25 4 -14 12 -24 19 -22 7 1 13 -13 15
-37 2 -28 9 -40 23 -43 10 -3 19 -14 19 -24 0 -12 7 -19 20 -19 13 0 20 -7 20
-20 0 -13 -7 -20 -20 -20 -13 0 -20 7 -20 20 0 13 -7 20 -20 20 -13 0 -20 7
-20 20 0 13 -7 20 -20 20 -16 0 -20 7 -20 35 0 25 -4 35 -15 35 -9 0 -20 11
-25 25 -5 14 -16 25 -25 25 -8 0 -15 9 -15 19 0 13 -8 21 -22 23 -16 2 -22 9
-20 21 2 11 -4 17 -16 17 -22 0 -34 22 -26 44 3 9 -5 21 -20 31 -18 12 -26 26
-26 46 0 32 21 48 63 49 22 0 27 -4 27 -25z m43 -31 c11 -12 -13 -43 -28 -38
-22 9 -19 44 3 44 10 0 22 -3 25 -6z m1494 -16 c-3 -8 -6 -5 -6 6 -1 11 2 17
5 13 3 -3 4 -12 1 -19z m-733 -34 c8 -20 7 -21 -19 -26 -14 -2 -21 3 -23 20
-3 16 2 22 16 22 11 0 23 -7 26 -16z m234 -37 c2 -37 0 -47 -12 -47 -9 0 -16
-4 -16 -10 0 -5 -11 -10 -25 -10 -22 0 -25 4 -25 34 0 33 20 53 41 40 6 -3 7
5 3 21 -6 23 -4 26 12 23 15 -2 20 -13 22 -51z m170 46 c17 -4 20 -8 11 -13
-8 -5 3 -13 29 -21 23 -7 42 -18 42 -26 0 -7 7 -13 15 -13 11 0 15 -11 15 -39
0 -37 -2 -39 -36 -43 -32 -4 -37 -1 -46 24 -6 15 -14 26 -18 23 -5 -3 -13 3
-19 12 -8 14 -10 15 -11 3 0 -13 -1 -13 -10 0 -8 13 -10 12 -10 -2 0 -19 -8
-22 -34 -12 -12 5 -16 20 -16 60 l0 54 33 0 c17 0 43 -3 55 -7z m230 -10 c-5
-26 -38 -29 -38 -4 0 15 6 21 21 21 14 0 19 -5 17 -17z m-728 -3 c0 -5 -2 -10
-4 -10 -3 0 -8 5 -11 10 -3 6 -1 10 4 10 6 0 11 -4 11 -10z m-230 -35 c0 -18
-5 -25 -20 -25 -15 0 -20 7 -20 25 0 18 5 25 20 25 15 0 20 -7 20 -25z m160
-9 c8 -11 10 -17 4 -13 -9 5 -10 -11 -7 -57 4 -48 2 -69 -10 -86 l-16 -23 -5
24 c-3 13 -7 40 -8 59 -2 27 -7 34 -20 32 -14 -2 -18 4 -18 29 0 29 2 31 30
27 25 -4 30 -1 30 15 0 11 1 18 3 16 1 -2 9 -13 17 -23z m120 4 c0 -13 -7 -20
-20 -20 -13 0 -20 7 -20 20 0 13 7 20 20 20 13 0 20 -7 20 -20z m160 -120 c0
-53 -2 -60 -20 -60 -13 0 -20 -7 -20 -20 0 -18 -7 -20 -60 -20 -48 0 -60 3
-60 16 0 9 9 18 20 21 12 3 19 12 18 22 -2 11 6 17 25 19 21 3 27 8 23 19 -4
9 1 17 14 20 11 3 20 14 20 24 0 12 7 19 20 19 18 0 20 -7 20 -60z m200 40 c0
-13 -7 -20 -20 -20 -13 0 -20 -7 -20 -20 0 -13 -7 -20 -20 -20 -17 0 -20 7
-20 40 l0 40 40 0 c33 0 40 -3 40 -20z m-1240 -57 c0 -26 5 -36 20 -40 11 -3
20 -11 20 -18 0 -7 9 -15 20 -18 11 -3 20 -12 20 -21 0 -9 8 -16 20 -16 13 0
20 -7 20 -19 0 -11 9 -23 20 -26 11 -3 20 -15 20 -26 0 -12 7 -19 20 -19 11 0
20 -7 20 -15 0 -14 12 -19 33 -16 4 0 7 -8 7 -19 0 -13 7 -20 20 -20 14 0 20
-7 20 -21 0 -13 8 -23 21 -26 14 -4 19 -12 17 -27 -4 -28 -32 -27 -36 2 -2 13
-10 22 -22 22 -10 0 -20 9 -23 20 -3 11 -12 20 -21 20 -9 0 -16 8 -16 20 0 12
-7 20 -17 20 -19 0 -75 59 -67 71 3 5 -4 9 -15 9 -14 0 -21 6 -21 20 0 13 -7
20 -20 20 -13 0 -20 7 -20 20 0 15 -7 20 -25 20 -18 0 -25 5 -25 20 0 11 -7
20 -15 20 -11 0 -15 11 -15 38 0 43 6 53 26 45 8 -3 14 -19 14 -40z m1320 -40
c0 -35 -3 -43 -18 -43 -10 0 -24 -6 -30 -12 -10 -10 -15 -10 -22 2 -15 23 -12
91 3 89 28 -3 37 2 37 24 1 21 1 22 15 3 8 -11 15 -39 15 -63z m200 58 c0 -11
9 -21 21 -24 25 -7 21 -30 -6 -36 -13 -2 -16 1 -11 14 4 12 0 18 -14 22 -23 6
-27 43 -5 43 8 0 15 -8 15 -19z m-400 -41 c0 -13 7 -20 20 -20 18 0 20 -7 20
-55 0 -59 -3 -63 -26 -40 -21 21 -45 19 -51 -4 -3 -10 -15 -21 -26 -23 -20 -4
-22 -1 -18 39 2 34 7 43 22 43 15 0 19 7 19 40 0 33 3 40 20 40 13 0 20 -7 20
-20z m-756 -35 c5 -20 13 -25 36 -25 17 0 30 -4 30 -10 0 -5 0 -13 0 -17 0 -5
-4 -9 -10 -9 -5 -1 -14 -2 -20 -3 -5 0 -10 -10 -10 -20 0 -20 32 -37 50 -26 6
3 10 -3 10 -16 0 -17 -4 -20 -22 -15 -13 3 -33 6 -45 6 -14 0 -23 6 -23 15 0
8 5 15 10 15 6 0 10 9 10 20 0 11 -4 20 -10 20 -5 0 -10 9 -10 20 0 13 -7 20
-20 20 -15 0 -20 7 -20 25 0 18 5 25 19 25 12 0 21 -9 25 -25z m1234 -8 c2
-12 -3 -17 -17 -17 -15 0 -21 6 -21 21 0 25 33 22 38 -4z m-78 -77 c0 -53 -2
-60 -20 -60 -11 0 -20 6 -20 14 0 7 -9 16 -20 19 -12 3 -20 14 -20 27 0 19 -4
22 -35 18 -28 -3 -35 -1 -35 13 0 23 13 27 88 28 l62 1 0 -60z m-483 -46 c-3
-3 -12 -4 -19 -1 -8 3 -5 6 6 6 11 1 17 -2 13 -5z m803 -28 c0 -23 -22 -41
-34 -29 -3 4 -6 17 -6 30 0 16 6 23 20 23 14 0 20 -7 20 -24z m-1360 -36 c0
-10 9 -20 20 -23 14 -3 20 -14 20 -31 0 -36 -29 -32 -43 7 -4 11 -17 17 -40
17 -40 0 -46 5 -40 30 9 33 83 33 83 0z m278 -39 c-3 -45 -3 -46 -38 -46 -35
0 -35 0 -38 50 l-3 51 41 -4 41 -4 -3 -47z m305 39 c-3 -12 -8 -19 -11 -16 -5
6 5 36 12 36 2 0 2 -9 -1 -20z m827 -30 c0 -36 -2 -40 -25 -40 -22 0 -25 4
-25 40 0 36 3 40 25 40 23 0 25 -4 25 -40z m230 -15 c0 -18 -5 -25 -20 -25
-20 0 -28 28 -13 43 15 16 33 6 33 -18z m120 -5 c0 -13 -7 -20 -20 -20 -13 0
-20 7 -20 20 0 13 7 20 20 20 13 0 20 -7 20 -20z m-1842 -78 c3 -18 10 -22 42
-22 29 0 39 -4 43 -20 3 -13 10 -18 21 -14 12 5 16 0 16 -20 0 -19 5 -26 20
-26 17 0 20 -7 20 -40 0 -33 3 -40 20 -40 17 0 20 -7 20 -40 0 -33 -3 -40 -20
-40 -17 0 -20 7 -20 39 0 33 -4 40 -22 43 -13 2 -23 10 -23 18 0 8 -9 15 -20
15 -15 0 -20 7 -21 31 -1 43 -10 54 -45 54 -22 0 -29 5 -29 20 0 13 -7 20 -20
20 -13 0 -20 7 -20 18 0 38 33 41 38 4z m402 3 c6 -16 14 -23 25 -19 11 5 15
-1 15 -20 0 -31 -24 -35 -40 -6 -6 11 -17 20 -25 20 -9 0 -15 10 -15 25 0 33
27 33 40 0z m840 -5 c0 -13 -7 -20 -20 -20 -13 0 -20 7 -20 20 0 13 7 20 20
20 13 0 20 -7 20 -20z m-1656 -16 c11 -4 16 -19 16 -45 0 -32 -3 -39 -20 -39
-17 0 -20 7 -20 45 0 48 0 48 24 39z m180 -13 c10 -16 -6 -42 -23 -39 -9 2
-17 13 -19 26 -3 16 2 22 17 22 11 0 22 -4 25 -9z m1516 -5 c0 -7 9 -16 20
-19 12 -3 20 -14 20 -26 0 -14 6 -21 20 -21 13 0 20 -7 20 -20 0 -13 7 -20 20
-20 17 0 20 -7 20 -40 0 -33 -3 -40 -20 -40 -13 0 -20 -7 -20 -20 0 -13 -7
-20 -20 -20 -13 0 -20 7 -20 20 0 11 -7 20 -15 20 -21 0 -31 30 -14 40 17 11
29 3 29 -21 0 -12 7 -19 20 -19 13 0 20 7 20 20 0 13 -7 20 -20 20 -16 0 -20
7 -20 34 0 26 -5 36 -20 41 -11 3 -20 15 -20 26 0 12 -7 19 -20 19 -13 0 -20
7 -20 20 0 13 7 20 20 20 11 0 20 -6 20 -14z m280 -7 c0 -16 5 -20 19 -16 15
3 21 -1 23 -16 2 -12 12 -23 22 -25 15 -3 18 0 14 16 -4 13 0 23 9 26 22 9 33
-2 33 -34 0 -23 -3 -27 -20 -23 -11 3 -20 0 -20 -6 0 -6 9 -11 20 -11 15 0 20
-7 20 -25 0 -18 -5 -25 -20 -25 -13 0 -20 -7 -20 -20 0 -13 -7 -20 -20 -20
-16 0 -19 8 -22 58 -2 41 -7 56 -16 54 -8 -1 -16 6 -19 17 -3 11 -15 21 -27
23 -13 2 -22 11 -24 26 -3 18 1 22 22 22 20 0 26 -5 26 -21z m-322 -58 c-4
-44 -31 -50 -36 -8 -5 39 4 58 23 51 12 -5 15 -17 13 -43z m-1518 25 c0 -8 9
-18 20 -21 16 -5 20 -15 20 -46 0 -32 3 -39 20 -39 11 0 20 -6 20 -14 0 -8 10
-16 22 -18 12 -2 25 -12 28 -23 3 -12 15 -21 30 -23 14 -2 29 -7 34 -12 12
-12 -2 -30 -19 -23 -10 3 -15 -2 -15 -17 0 -13 8 -24 20 -27 11 -3 20 -14 20
-24 0 -12 -7 -19 -20 -19 -13 0 -20 7 -20 20 0 13 -7 20 -20 20 -11 0 -20 7
-20 15 0 8 -7 15 -15 15 -8 0 -16 5 -16 10 -1 6 -3 15 -4 20 -1 6 -3 21 -4 35
-1 18 -7 25 -21 25 -13 0 -20 7 -20 20 0 13 -7 20 -20 20 -16 0 -20 7 -20 34
0 28 -4 35 -25 40 -16 4 -25 13 -25 26 0 15 7 20 25 20 15 0 25 -6 25 -14z
m640 -45 c0 -10 -9 -21 -20 -24 -11 -3 -20 -12 -20 -21 0 -9 -8 -16 -20 -16
-13 0 -20 7 -20 20 0 13 -7 20 -20 20 -13 0 -20 7 -20 20 0 18 7 20 60 20 52
0 60 -2 60 -19z m1570 -21 c0 -36 -2 -40 -25 -40 -22 0 -25 4 -25 34 0 28 4
35 23 39 12 2 23 5 25 6 1 0 2 -17 2 -39z m70 0 c0 -33 3 -40 20 -40 13 0 20
-7 20 -20 0 -13 -7 -20 -20 -20 -13 0 -20 7 -20 20 0 15 -7 20 -25 20 -22 0
-25 4 -25 40 0 36 3 40 25 40 23 0 25 -4 25 -40z m-710 -22 c0 -14 -30 -22
-42 -10 -6 6 -8 22 -4 37 l7 27 19 -23 c11 -12 20 -26 20 -31z m-1730 7 c5
-14 16 -25 24 -25 8 0 17 -9 21 -20 3 -11 11 -19 18 -17 6 1 13 -8 15 -20 2
-15 10 -23 23 -23 11 0 19 -7 19 -16 0 -9 9 -18 20 -21 27 -7 27 -43 0 -43
-13 0 -20 7 -20 20 0 11 -6 20 -14 20 -17 0 -76 54 -76 69 0 6 -6 10 -12 9 -7
-2 -14 7 -16 20 -2 14 -10 22 -23 22 -12 0 -19 7 -19 18 0 39 26 43 40 7z
m1390 -5 c0 -5 -2 -10 -4 -10 -3 0 -8 5 -11 10 -3 6 -1 10 4 10 6 0 11 -4 11
-10z m930 -77 c0 -16 6 -23 20 -23 13 0 20 -7 20 -20 0 -13 -7 -20 -20 -20
-13 0 -20 7 -20 20 0 13 -7 20 -20 20 -15 0 -20 7 -20 24 0 19 5 24 20 23 14
-1 20 -8 20 -24z m-1522 -6 c3 -14 -1 -18 -20 -15 -12 2 -24 11 -26 21 -3 14
1 18 20 15 12 -2 24 -11 26 -21z m-78 -31 c0 -23 -22 -41 -34 -29 -11 11 -6
41 7 46 23 10 27 7 27 -17z m-720 -5 c0 -19 -23 -35 -34 -24 -14 15 -5 43 14
43 13 0 20 -7 20 -19z m400 -36 c0 -18 -5 -25 -20 -25 -15 0 -20 7 -20 25 0
18 5 25 20 25 15 0 20 -7 20 -25z m198 -3 c3 -17 -2 -22 -17 -22 -15 0 -21 -6
-21 -24 0 -17 -5 -23 -17 -22 -38 3 -45 46 -8 46 20 0 25 5 25 26 0 33 33 30
38 -4z m1120 1 c-5 -26 -38 -29 -38 -4 0 15 6 21 21 21 14 0 19 -5 17 -17z
m842 1 c0 -9 9 -18 20 -21 11 -3 20 -12 20 -19 0 -8 11 -19 25 -24 38 -14 22
-40 -26 -40 -39 0 -39 0 -39 40 0 33 -3 40 -20 40 -13 0 -20 7 -20 20 0 13 7
20 20 20 12 0 20 -7 20 -16z m-1416 -10 c11 -4 16 -19 16 -50 0 -36 -3 -44
-19 -44 -10 0 -21 9 -24 20 -3 11 -12 20 -21 20 -9 0 -16 8 -16 20 0 13 7 20
20 20 11 0 20 5 20 10 0 12 3 12 24 4z m1219 -23 c6 -24 0 -31 -25 -31 -13 0
-18 7 -18 25 0 31 35 35 43 6z m-803 -6 c0 -8 9 -15 20 -15 14 0 20 -7 20 -21
0 -12 8 -23 20 -26 11 -3 20 -14 20 -24 0 -12 7 -19 20 -19 13 0 20 -7 20 -20
0 -11 7 -20 15 -20 10 0 15 -9 14 -27 0 -25 -1 -26 -9 -8 -5 11 -9 16 -10 10
0 -5 -5 -2 -11 8 -5 9 -17 17 -24 17 -8 0 -15 9 -15 20 0 13 -7 20 -19 20 -10
0 -21 9 -24 20 -3 11 -12 20 -21 20 -9 0 -16 8 -16 20 0 13 -7 20 -20 20 -13
0 -20 7 -20 20 0 13 7 20 20 20 11 0 20 -7 20 -15z m-1259 -25 c18 0 29 -17
22 -36 -6 -17 -41 -5 -48 17 -4 10 -11 19 -16 19 -6 0 -7 5 -3 11 4 8 9 8 17
0 6 -6 19 -11 28 -11z m579 -15 c0 -18 -5 -25 -20 -25 -15 0 -20 7 -20 25 0
18 5 25 20 25 15 0 20 -7 20 -25z m1171 3 c4 -7 9 -6 13 1 4 6 37 11 77 11 55
0 69 -3 69 -15 0 -8 7 -15 15 -15 13 0 15 -49 15 -385 0 -378 0 -385 -20 -385
-12 0 -20 -7 -20 -17 0 -17 -15 -18 -184 -18 -109 0 -182 4 -178 9 3 5 -2 7
-11 3 -11 -4 -17 -1 -17 8 0 9 -10 15 -25 15 l-25 0 0 380 c0 373 0 380 20
380 14 0 20 7 20 23 0 23 0 23 123 19 67 -3 125 -9 128 -14z m-1011 -28 c0
-33 3 -40 20 -40 13 0 20 -7 20 -20 0 -13 -7 -20 -20 -20 -13 0 -20 7 -20 20
0 13 -7 20 -20 20 -13 0 -20 -7 -20 -20 0 -13 -7 -20 -20 -20 -13 0 -20 7 -20
19 0 10 9 21 20 24 11 3 20 12 20 21 0 9 -8 16 -20 16 -13 0 -20 7 -20 20 0
17 7 20 40 20 l40 0 0 -40z m1400 24 c0 -9 9 -18 20 -21 11 -3 20 -14 20 -24
0 -12 7 -19 20 -19 13 0 20 -7 20 -20 0 -13 7 -20 20 -20 13 0 20 -7 20 -20 0
-13 7 -20 20 -20 16 0 20 -7 20 -34 0 -26 5 -36 20 -41 13 -4 20 -15 20 -31 0
-26 -1 -27 -24 -18 -9 3 -16 15 -16 25 0 12 -7 19 -20 19 -16 0 -20 7 -20 34
0 26 -5 36 -20 41 -11 3 -20 15 -20 26 0 12 -7 19 -20 19 -11 0 -20 7 -20 15
0 8 -9 15 -20 15 -13 0 -22 9 -26 25 -3 14 -12 25 -20 25 -8 0 -14 9 -14 20 0
13 7 20 20 20 12 0 20 -7 20 -16z m-2316 -40 c8 -21 -1 -34 -25 -34 -14 0 -19
7 -19 25 0 29 34 36 44 9z m124 -6 c-2 -15 -11 -24 -25 -26 -19 -3 -23 1 -23
22 0 21 5 26 26 26 21 0 25 -4 22 -22z m312 2 c0 -21 -33 -29 -45 -10 -9 15 4
30 26 30 12 0 19 -7 19 -20z m-70 -40 c0 -11 -10 -20 -25 -24 -30 -8 -33 -26
-5 -33 11 -3 20 -14 20 -24 0 -26 -36 -25 -43 1 -3 11 -12 20 -21 20 -9 0 -16
-8 -16 -20 0 -13 -7 -20 -20 -20 -11 0 -21 5 -21 10 -5 29 -2 35 16 35 13 0
19 6 17 18 -2 12 4 17 23 17 18 0 25 5 25 18 0 25 7 31 31 25 10 -3 19 -13 19
-23z m950 -1 c0 -12 7 -19 20 -19 13 0 20 -7 20 -20 0 -13 7 -20 20 -20 17 0
20 -7 20 -40 0 -33 -3 -40 -20 -40 -13 0 -20 7 -20 20 0 13 -7 20 -20 20 -17
0 -20 7 -20 40 0 33 -3 40 -20 40 -19 0 -28 28 -14 43 11 11 34 -5 34 -24z
m-1360 -30 c0 -12 8 -23 20 -26 15 -4 20 -14 20 -39 0 -27 4 -34 20 -34 16 0
20 -7 20 -30 0 -16 -3 -30 -7 -30 -14 0 -29 15 -36 33 -3 9 -13 17 -22 17 -14
0 -21 29 -16 68 1 6 -7 12 -17 12 -26 0 -33 10 -21 31 13 26 39 24 39 -2z
m1320 -9 c0 -23 -29 -35 -36 -15 -4 8 -4 22 0 30 7 20 36 8 36 -15z m-680 5
c0 -14 7 -17 55 -19 13 -1 21 -9 23 -25 2 -13 12 -26 23 -28 10 -3 19 -12 19
-19 0 -8 9 -14 20 -14 13 0 20 7 20 20 0 13 7 20 20 20 27 0 27 -36 0 -43 -11
-3 -19 -11 -18 -18 2 -8 -7 -15 -20 -17 -17 -3 -25 2 -29 17 -4 16 -13 21 -39
21 -28 0 -34 4 -34 21 0 14 -5 19 -14 16 -18 -7 -36 11 -29 29 3 9 -2 14 -16
14 -14 0 -21 6 -21 20 0 13 7 20 20 20 11 0 20 -7 20 -15z m400 -66 c0 -29 4
-39 16 -39 9 0 18 9 21 20 6 23 41 27 49 5 4 -8 12 -15 20 -15 7 0 16 -11 20
-25 5 -20 12 -25 39 -25 25 0 34 -5 38 -21 4 -14 11 -20 20 -16 9 3 17 -2 20
-14 8 -29 -7 -74 -26 -77 -13 -3 -17 4 -17 30 0 39 -12 60 -31 58 -34 -5 -49
1 -49 20 0 13 -7 20 -20 20 -11 0 -20 7 -20 15 0 8 -2 15 -4 15 -2 0 -11 3
-20 6 -12 4 -16 0 -16 -15 0 -28 -36 -28 -43 0 -3 12 -10 18 -16 14 -12 -7
-31 32 -25 53 2 6 6 19 9 27 9 30 35 4 35 -36z m1958 7 c2 -28 9 -40 23 -43
10 -3 19 -14 19 -24 0 -12 7 -19 20 -19 11 0 20 -4 20 -9 0 -5 3 -23 6 -40 6
-28 4 -31 -20 -31 -19 0 -26 5 -26 20 0 13 -7 20 -20 20 -13 0 -20 7 -20 20 0
13 -7 20 -20 20 -18 0 -20 7 -20 58 0 32 3 62 7 66 15 14 28 -2 31 -38z m-278
14 c0 -13 -7 -20 -20 -20 -13 0 -20 7 -20 20 0 13 7 20 20 20 13 0 20 -7 20
-20z m-2357 -40 c4 -16 0 -20 -19 -20 -17 0 -24 6 -24 20 0 13 7 20 19 20 10
0 21 -9 24 -20z m115 -2 c-4 -32 -52 -32 -56 0 -3 19 1 22 28 22 27 0 31 -3
28 -22z m1842 6 c0 -9 9 -18 19 -21 14 -3 21 -15 23 -37 2 -19 8 -31 18 -31 9
0 16 -11 18 -27 3 -23 -1 -28 -17 -28 -14 0 -21 6 -21 20 0 13 -7 20 -19 20
-16 0 -20 8 -23 38 -2 25 -8 37 -18 37 -8 0 -16 10 -18 23 -3 17 2 22 17 22
13 0 21 -6 21 -16z m480 0 c0 -9 9 -18 20 -21 11 -3 20 -12 20 -20 0 -8 9 -17
19 -20 11 -3 21 -13 24 -24 3 -10 12 -19 20 -19 9 0 19 -9 22 -20 3 -11 13
-20 21 -20 8 0 14 -10 14 -25 0 -18 -5 -25 -20 -25 -15 0 -20 7 -20 27 0 14
-3 23 -6 20 -10 -10 -45 13 -38 24 3 6 -3 13 -15 16 -12 3 -21 13 -21 24 0 12
-7 19 -19 19 -10 0 -21 9 -24 20 -3 11 -12 20 -21 20 -26 0 -22 -70 4 -77 11
-3 20 -14 20 -24 0 -12 -7 -19 -20 -19 -12 0 -20 7 -20 16 0 9 -9 18 -20 21
-16 4 -20 14 -20 43 0 29 4 39 20 43 11 3 20 12 20 21 0 9 8 16 20 16 12 0 20
-7 20 -16z m670 -29 c0 -44 -26 -48 -32 -5 -5 33 -2 40 19 40 8 0 13 -12 13
-35z m-2910 -30 c0 -28 4 -35 20 -35 15 0 20 -7 20 -25 0 -19 5 -25 21 -25 15
0 20 -5 17 -22 -5 -34 -38 -37 -38 -4 0 21 -5 26 -24 26 -20 0 -23 4 -18 22 4
17 2 20 -12 15 -10 -4 -20 -7 -22 -7 -2 0 -4 -7 -4 -15 0 -9 -9 -15 -21 -15
-15 0 -20 5 -17 23 2 15 9 21 21 19 14 -2 17 5 17 38 0 33 3 40 20 40 16 0 20
-7 20 -35z m960 1 c0 -25 5 -35 20 -39 12 -3 20 -14 20 -26 0 -14 -6 -21 -20
-21 -13 0 -20 7 -20 20 0 13 -7 20 -20 20 -17 0 -20 7 -20 40 0 33 3 40 20 40
16 0 20 -7 20 -34z m-1357 -43 c5 -43 -2 -56 -26 -47 -12 4 -17 18 -17 45 0
32 4 39 19 39 14 0 20 -9 24 -37z m3355 -46 c3 -72 1 -77 -18 -77 -17 0 -20 7
-21 40 -1 22 -2 55 -3 73 -3 40 2 49 22 45 14 -3 18 -18 20 -81z m-3280 20 c3
-22 -1 -27 -17 -27 -16 0 -21 6 -21 29 0 39 34 37 38 -2z m722 -3 c0 -33 -33
-30 -38 4 -3 17 2 22 17 22 16 0 21 -6 21 -26z m1320 7 c0 -10 -9 -21 -20 -24
-16 -4 -20 0 -20 19 0 17 6 24 20 24 13 0 20 -7 20 -19z m878 -45 c-4 -27 -38
-35 -38 -9 0 11 -5 24 -10 29 -7 7 -1 9 20 6 25 -4 30 -9 28 -26z m-1800 -359
c2 -204 1 -218 -15 -215 -16 3 -18 18 -21 135 -2 126 -3 131 -25 137 -49 13
-57 8 -57 -34 0 -33 -3 -40 -19 -40 -13 0 -21 8 -23 23 -3 20 -9 22 -80 25
l-78 3 0 -66 c0 -58 -2 -65 -20 -65 -18 0 -20 7 -20 66 l0 65 -37 -3 c-38 -3
-38 -3 -41 -50 -3 -40 -6 -48 -23 -48 -17 0 -19 7 -19 65 0 58 -2 65 -20 65
-18 0 -20 7 -20 80 l0 80 258 -2 257 -3 3 -218z m202 141 c0 -71 2 -78 20 -78
17 0 20 -7 20 -40 0 -33 -3 -40 -20 -40 -17 0 -20 7 -20 40 l0 40 -60 0 -60 0
0 -40 c0 -33 -3 -40 -20 -40 -19 0 -20 7 -20 119 l0 119 80 -2 80 -1 0 -77z
m878 -80 c-3 -146 -5 -163 -20 -166 -16 -3 -18 5 -18 67 l0 71 -94 0 c-109 0
-106 -4 -106 118 l0 72 120 0 120 0 -2 -162z m651 146 c-9 -12 -9 -18 0 -27 9
-9 14 -9 20 2 5 8 7 20 4 28 -4 11 50 13 323 9 181 -2 373 -5 427 -5 l97 -1 0
-91 0 -91 -37 4 -38 3 -3 -68 c-2 -37 -7 -67 -12 -67 -6 0 -11 -33 -12 -72 -1
-68 -2 -66 -8 32 -4 58 -8 126 -9 153 l-1 47 -40 0 -39 0 -3 -62 c-2 -48 -7
-63 -18 -63 -11 0 -16 13 -18 48 l-3 47 -60 0 c-47 0 -59 3 -59 16 0 11 -6 14
-22 8 -13 -3 -24 -11 -26 -15 -4 -11 -112 -12 -112 -1 0 4 19 6 43 5 l42 -2
-38 10 c-20 6 -49 8 -62 5 -23 -6 -25 -11 -25 -62 0 -40 -4 -56 -15 -61 -24
-9 -29 2 -27 62 0 42 -3 55 -14 55 -8 0 -14 -4 -14 -10 0 -6 -27 -9 -62 -9
-58 2 -60 2 -23 9 l40 7 -40 3 c-22 1 -50 4 -62 5 -12 1 -24 -4 -28 -12 -3 -9
-12 -13 -21 -9 -14 5 -15 -7 -14 -97 3 -177 1 -197 -15 -197 -12 0 -15 27 -17
158 -3 154 -3 157 -25 160 -22 3 -23 1 -23 -77 0 -74 -2 -81 -20 -81 -18 0
-20 7 -20 75 l0 75 -80 0 -80 0 0 -141 c0 -128 -2 -140 -17 -137 -16 3 -18 19
-21 146 -2 134 -4 142 -22 142 -17 0 -20 -7 -20 -40 0 -33 -3 -40 -20 -40 -17
0 -20 -7 -20 -40 0 -33 -3 -40 -20 -40 -18 0 -20 7 -20 75 l0 75 -64 0 c-35 0
-71 3 -80 6 -12 5 -16 -5 -18 -53 -2 -46 -7 -59 -20 -61 -16 -3 -18 9 -18 138
l0 141 311 -1 c274 -1 309 -3 298 -16z m151 -290 c0 -8 -7 -14 -15 -14 -15 0
-21 21 -9 33 10 9 24 -2 24 -19z m-2325 -86 c7 -71 0 -128 -16 -128 -6 0 -9
44 -7 109 3 118 12 125 23 19z m-127 0 c-4 -93 -23 -88 -23 4 0 49 4 68 13 68
10 0 12 -18 10 -72z m2170 -13 c1 -55 -3 -75 -13 -75 -16 0 -22 31 -17 98 3
34 8 52 17 52 10 0 13 -20 13 -75z m-328 -11 c0 -36 -4 -64 -10 -64 -6 0 -10
30 -10 71 0 44 4 68 10 64 6 -3 10 -35 10 -71z m680 -11 c0 -45 -1 -46 -17
-30 -13 13 -14 20 -5 29 7 7 12 20 12 30 0 10 2 18 5 18 3 0 5 -21 5 -47z
m-3293 -35 c-2 -13 -4 -3 -4 22 0 25 2 35 4 23 2 -13 2 -33 0 -45z m62 -115
c1 -7 -8 -13 -19 -13 -23 0 -27 29 -8 48 10 10 14 9 20 -5 3 -10 7 -24 7 -30z
m1099 24 c-1 -2 3 -11 11 -20 12 -15 11 -17 -3 -17 -11 0 -16 9 -16 27 0 14 3
24 6 21 3 -4 4 -8 2 -11z m-1184 -239 c8 -30 8 -233 0 -241 -3 -3 -12 -3 -20
0 -11 4 -14 29 -14 112 0 107 6 151 20 151 4 0 10 -10 14 -22z m2686 -130 c0
-98 -3 -118 -15 -118 -8 0 -16 6 -16 13 -4 38 2 231 8 239 14 24 23 -25 23
-134z m-432 110 c9 -9 12 -9 12 1 0 7 5 9 10 6 6 -3 10 -31 10 -61 0 -47 -2
-54 -20 -54 -13 0 -20 7 -20 20 0 13 -7 20 -20 20 -17 0 -20 7 -20 40 0 32 4
40 18 40 10 0 23 -5 30 -12z m312 -108 c0 -113 -1 -120 -20 -120 -19 0 -20 7
-20 120 0 113 1 120 20 120 19 0 20 -7 20 -120z m1040 65 c0 -48 -2 -55 -20
-55 -17 0 -20 7 -20 48 0 51 5 62 27 62 9 0 13 -16 13 -55z m280 9 c0 -27 -4
-34 -20 -34 -20 0 -27 30 -14 64 10 26 34 6 34 -30z m-3640 -14 c0 -13 -7 -20
-20 -20 -13 0 -20 7 -20 20 0 13 7 20 20 20 13 0 20 -7 20 -20z m640 0 c0 -13
-7 -20 -20 -20 -13 0 -20 7 -20 20 0 13 7 20 20 20 13 0 20 -7 20 -20z m880 0
c0 -13 -7 -20 -20 -20 -13 0 -20 7 -20 20 0 13 7 20 20 20 13 0 20 -7 20 -20z
m118 -3 c2 -12 -3 -17 -17 -17 -15 0 -21 6 -21 21 0 25 33 22 38 -4z m-678
-37 c0 -13 -7 -20 -20 -20 -19 0 -27 20 -13 33 13 14 33 6 33 -13z m80 0 c0
-13 -7 -20 -20 -20 -13 0 -20 7 -20 20 0 13 7 20 20 20 13 0 20 -7 20 -20z
m120 6 c0 -7 -9 -16 -20 -19 -12 -3 -20 -14 -20 -26 0 -14 -6 -21 -20 -21 -13
0 -20 7 -20 20 0 13 7 20 20 20 13 0 20 7 20 20 0 13 7 20 20 20 11 0 20 -6
20 -14z m1840 -6 c0 -11 -7 -20 -15 -20 -8 0 -15 9 -15 20 0 11 7 20 15 20 8
0 15 -9 15 -20z m283 -40 c4 -16 0 -20 -19 -20 -17 0 -24 6 -24 20 0 13 7 20
19 20 10 0 21 -9 24 -20z m-1243 -56 c0 -28 -4 -35 -17 -32 -10 2 -18 15 -20
36 -4 27 -1 32 16 32 17 0 21 -6 21 -36z m600 -24 c0 -15 -7 -20 -25 -20 -18
0 -25 5 -25 20 0 15 7 20 25 20 18 0 25 -5 25 -20z m-210 -80 c0 -20 7 -20
325 -20 318 0 325 0 325 -20 0 -20 -7 -20 -480 -20 -473 0 -480 0 -480 20 0
19 7 20 146 20 121 0 145 2 141 14 -6 15 1 26 15 26 4 0 8 -9 8 -20z m-390
-40 c0 -18 -7 -20 -80 -20 -44 0 -80 2 -80 4 0 29 16 36 86 36 67 0 74 -2 74
-20z m1200 0 c0 -18 -7 -20 -60 -20 -53 0 -60 2 -60 20 0 18 7 20 60 20 53 0
60 -2 60 -20z m328 -2 c3 -16 -5 -18 -62 -18 -60 0 -66 2 -66 20 0 19 5 21 62
18 50 -2 63 -6 66 -20z m-2478 -71 c41 -2 -109 -5 -335 -7 l-410 -5 490 -5
c483 -5 490 -5 487 -25 -2 -11 -6 -22 -9 -25 -7 -8 -838 -12 -940 -5 -83 6
-93 9 -93 26 0 13 7 19 21 19 11 0 23 8 25 18 5 16 28 17 347 14 188 -1 376
-3 417 -5z m2323 -4 c-2 -9 14 -13 55 -14 31 0 84 -1 116 -2 l60 -2 0 -157 c1
-157 1 -158 -21 -158 -23 0 -23 2 -23 130 l0 130 -332 2 c-298 2 -386 4 -480
7 -23 1 -28 6 -28 26 l0 25 260 0 c228 0 260 2 260 15 0 13 12 15 68 13 47 -2
66 -7 65 -15z m-2145 0 c-10 -2 -26 -2 -35 0 -10 3 -2 5 17 5 19 0 27 -2 18
-5z m79 1 c-3 -3 -12 -4 -19 -1 -8 3 -5 6 6 6 11 1 17 -2 13 -5z m76 -1 c-13
-2 -33 -2 -45 0 -13 2 -3 4 22 4 25 0 35 -2 23 -4z m451 -31 c-1 -18 -3 -87
-5 -154 l-3 -123 -6 125 -6 125 -4 -90 c-3 -49 -5 -112 -5 -140 0 -44 -3 -50
-22 -53 -23 -3 -23 -3 -23 135 l0 138 -167 -3 c-92 -2 -191 -1 -220 3 -48 6
-53 9 -53 31 l0 25 250 -3 c205 -2 249 -1 245 10 -3 8 0 12 7 10 7 -3 12 -19
12 -36z m153 32 c-3 -3 -12 -4 -19 -1 -8 3 -5 6 6 6 11 1 17 -2 13 -5z m80 0
c-3 -3 -12 -4 -19 -1 -8 3 -5 6 6 6 11 1 17 -2 13 -5z m597 -20 c22 -9 20 -31
-4 -39 -18 -6 -20 -15 -20 -86 0 -46 -4 -79 -10 -79 -5 0 -10 10 -10 22 0 12
-3 18 -7 14 -9 -9 -10 -13 -12 -71 -1 -38 -4 -45 -21 -45 -15 0 -20 7 -20 29
0 54 -12 89 -31 94 -10 3 -19 12 -19 21 0 12 10 16 45 16 l45 0 0 38 0 38
-335 -4 -335 -4 -9 24 c-5 13 -7 26 -4 31 5 8 724 10 747 1z m45 -126 c0 -45
-3 -57 -9 -43 -12 28 -12 105 0 105 6 0 10 -27 9 -62z m-2789 -12 c0 -16 21
-26 57 -26 18 0 24 -5 21 -17 -2 -13 -14 -19 -41 -21 -32 -3 -37 0 -37 17 0
18 -6 21 -40 21 -33 0 -40 3 -40 20 0 17 7 20 40 20 28 0 40 -4 40 -14z m-30
-80 c0 -18 -27 -39 -40 -31 -5 3 -10 15 -10 26 0 14 7 19 25 19 15 0 25 -6 25
-14z m950 -6 c0 -25 -29 -38 -41 -19 -15 25 -10 39 16 39 18 0 25 -5 25 -20z
m1870 -1 c0 -11 -4 -18 -10 -14 -5 3 -7 12 -3 20 7 21 13 19 13 -6z m-2070
-39 c0 -13 -7 -20 -20 -20 -13 0 -20 7 -20 20 0 13 7 20 20 20 13 0 20 -7 20
-20z m2064 -35 c3 -8 1 -15 -4 -15 -6 0 -10 7 -10 15 0 8 2 15 4 15 2 0 6 -7
10 -15z m291 0 c0 -12 -40 -19 -61 -11 -9 3 -12 11 -9 16 8 14 70 9 70 -5z
m455 -76 c173 -3 182 -4 80 -8 l-115 -5 130 -6 c125 -5 130 -6 133 -27 3 -20
-1 -23 -32 -23 -31 0 -36 -3 -36 -24 0 -15 -7 -26 -19 -29 -25 -6 -31 0 -31
30 0 23 -2 23 -100 23 l-100 0 0 -80 c0 -73 -2 -80 -20 -80 -18 0 -20 7 -20
80 0 73 -2 80 -20 80 -15 0 -20 7 -20 25 0 18 -5 25 -20 25 -19 0 -20 -7 -20
-165 0 -158 -1 -165 -20 -165 -19 0 -20 7 -20 141 l0 142 -357 -5 c-321 -5
-358 -7 -361 -22 -5 -24 -42 -20 -42 5 0 19 -4 20 -40 14 -39 -7 -40 -6 -40
24 l0 31 58 -2 c136 -5 347 3 332 12 -13 8 411 20 485 13 11 -1 108 -3 215 -4z
m-2700 -10 c-12 -9 -11 -10 5 -4 37 12 212 18 195 6 -12 -8 -7 -11 20 -11 26
0 31 3 20 10 -10 6 58 9 200 9 120 -1 200 -5 180 -9 -30 -6 -31 -8 -8 -9 41
-2 58 -11 58 -32 0 -18 -12 -19 -255 -20 -302 -2 -280 0 -280 -19 0 -10 -13
-16 -42 -18 -38 -3 -43 -1 -43 17 0 20 -5 21 -160 21 -153 0 -160 -1 -160 -20
0 -17 -7 -20 -49 -20 -27 0 -63 -3 -80 -6 -28 -6 -31 -4 -31 19 l0 26 -241 1
c-217 0 -243 -1 -254 -17 -11 -15 -13 -12 -17 21 -2 20 0 40 5 43 5 3 59 6
120 6 l112 0 -85 7 c-47 3 115 7 360 8 314 1 440 -2 430 -9z m1466 2 c-3 -5 1
-11 9 -15 12 -4 15 -32 15 -156 0 -99 4 -150 11 -150 5 0 7 -4 4 -10 -3 -5
-17 -10 -31 -10 l-24 0 0 140 0 140 -320 0 c-307 0 -320 1 -320 19 0 11 -9 21
-21 24 -12 3 -18 10 -14 16 4 8 117 11 351 11 201 0 343 -4 340 -9z m207 2
c-13 -2 -33 -2 -45 0 -13 2 -3 4 22 4 25 0 35 -2 23 -4z m240 0 c-13 -2 -33
-2 -45 0 -13 2 -3 4 22 4 25 0 35 -2 23 -4z m1855 -86 c3 -52 1 -57 -18 -57
-18 0 -20 6 -20 61 0 52 2 60 18 57 13 -2 18 -15 20 -61z m317 44 c0 -8 -8
-15 -17 -17 -12 -1 -18 4 -18 18 0 13 6 18 18 16 9 -2 17 -10 17 -17z m435 -1
c0 -13 -5 -18 -15 -14 -16 7 -19 17 -8 27 12 13 23 7 23 -13z m405 -20 c0 -36
-18 -51 -29 -25 -8 23 4 67 18 62 6 -2 11 -19 11 -37z m323 -23 c2 -44 0 -57
-11 -57 -19 0 -27 22 -27 69 0 77 34 66 38 -12z m120 41 c-5 -34 -38 -37 -38
-4 0 20 5 26 21 26 15 0 20 -5 17 -22z m-2283 -163 c0 -144 -2 -170 -15 -170
-13 0 -15 27 -18 173 -3 162 -2 173 15 170 16 -3 18 -18 18 -173z m359 153 c3
-13 6 -53 6 -90 0 -61 -2 -68 -20 -68 -19 0 -20 7 -20 90 0 70 3 90 14 90 7 0
16 -10 20 -22z m118 5 c6 -28 -2 -53 -18 -53 -9 0 -14 10 -14 28 0 42 23 60
32 25z m2206 -41 c3 -47 1 -52 -17 -52 -19 0 -21 6 -21 56 0 47 3 55 18 52 13
-2 18 -15 20 -56z m837 -5 c9 -82 4 -122 -15 -122 -12 0 -15 17 -16 85 -1 47
0 88 3 93 12 20 22 1 28 -56z m909 37 c-4 -38 -14 -42 -14 -6 0 18 4 32 9 32
4 0 7 -12 5 -26z m-117 -14 c1 -11 -2 -20 -8 -20 -5 0 -9 9 -9 20 0 11 4 20 8
20 4 0 8 -9 9 -20z m-3507 -110 c0 -113 -1 -120 -20 -120 -19 0 -20 7 -20 120
0 113 1 120 20 120 19 0 20 -7 20 -120z m676 28 c-4 -51 -9 -94 -12 -97 -10
-10 -14 11 -20 97 -7 91 -7 92 16 92 23 0 23 -1 16 -92z m154 77 c0 -10 -11
-15 -35 -15 -24 0 -35 5 -35 15 0 10 11 15 35 15 24 0 35 -5 35 -15z m808 -28
c3 -32 0 -37 -17 -37 -17 0 -21 6 -21 33 0 61 33 63 38 4z m517 -98 c0 -119
-2 -134 -17 -137 -16 -3 -18 8 -18 121 0 130 5 160 24 154 7 -2 11 -47 11
-138z m85 66 c0 -48 4 -75 11 -75 6 0 9 7 5 15 -3 8 -2 15 3 15 5 0 11 -16 13
-35 3 -29 1 -35 -14 -35 -13 0 -18 -8 -18 -25 0 -18 -5 -25 -20 -25 -19 0 -20
7 -20 120 0 113 1 120 20 120 18 0 20 -7 20 -75z m78 49 c2 -12 -4 -24 -12
-27 -10 -4 -16 -1 -16 7 0 8 -3 22 -6 31 -5 13 -2 16 12 13 10 -2 20 -13 22
-24z m66 15 c4 6 30 11 57 11 43 0 50 -3 47 -17 -2 -10 -13 -19 -26 -21 -14
-2 -22 -10 -22 -23 0 -12 -7 -19 -20 -19 -15 0 -20 7 -20 29 0 24 -3 28 -20
24 -15 -4 -20 0 -20 13 0 15 2 16 9 5 6 -9 11 -10 15 -2z m536 -29 c0 -33 -3
-40 -20 -40 -17 0 -20 7 -20 40 0 33 3 40 20 40 17 0 20 -7 20 -40z m113 -27
c4 -38 7 -92 7 -120 0 -46 -3 -53 -20 -53 -18 0 -20 7 -20 74 0 86 10 166 20
166 4 0 10 -30 13 -67z m284 -24 c2 -100 -6 -179 -18 -179 -5 0 -9 61 -9 136
0 104 3 135 13 131 8 -2 13 -31 14 -88z m-3517 54 c0 -14 -4 -21 -10 -18 -5 3
-10 2 -10 -4 0 -5 6 -12 13 -14 7 -3 5 -6 -5 -6 -14 -1 -18 7 -18 32 0 23 5
34 15 34 9 0 15 -10 15 -24z m466 12 c-4 -12 4 -15 44 -15 48 0 50 -1 50 -29
0 -37 -25 -61 -33 -31 -4 15 -13 20 -41 20 -34 0 -36 1 -36 35 0 19 5 35 11
35 6 0 9 -7 5 -15z m2528 -7 c3 -13 6 -65 6 -116 0 -84 -2 -93 -17 -90 -15 3
-19 16 -21 73 -5 115 14 197 32 133z m-1069 -36 c4 -15 12 -30 18 -34 16 -10
4 -18 -29 -21 -26 -2 -29 1 -32 31 -2 19 -1 40 2 48 8 21 33 6 41 -24z m1731
28 c10 0 14 -12 14 -40 0 -42 -14 -54 -23 -20 -3 12 -14 20 -26 20 -14 0 -21
6 -21 18 0 24 10 34 28 27 7 -3 20 -5 28 -5z m144 -15 c0 -18 -5 -25 -20 -25
-15 0 -20 7 -20 25 0 18 5 25 20 25 15 0 20 -7 20 -25z m-6811 -81 c2 -76 0
-95 -11 -91 -7 2 -11 11 -9 18 2 8 2 49 2 92 -1 42 2 77 7 77 4 0 9 -43 11
-96z m4206 76 c0 -8 -8 -16 -17 -18 -13 -2 -18 3 -18 18 0 15 5 20 18 18 9 -2
17 -10 17 -18z m142 -8 c-10 -10 -17 -35 -17 -55 0 -30 -4 -37 -20 -37 -16 0
-20 7 -20 34 0 25 5 35 20 39 11 3 20 12 20 21 0 9 7 16 17 16 15 0 15 -1 0
-18z m-5346 -12 c5 0 9 -9 9 -20 0 -17 -7 -20 -40 -20 -33 0 -40 3 -40 19 0
20 24 32 48 25 8 -2 18 -4 23 -4z m619 -21 c0 -14 -7 -19 -25 -19 -20 0 -25 5
-25 24 0 19 4 22 25 18 16 -3 25 -11 25 -23z m2552 -56 c2 -60 7 -87 15 -86
17 3 25 -27 9 -33 -8 -3 -25 -4 -38 -2 -22 3 -23 7 -26 106 -3 96 -2 102 17
102 18 0 20 -8 23 -87z m-3722 57 c0 -13 -7 -20 -20 -20 -13 0 -20 7 -20 20 0
13 7 20 20 20 13 0 20 -7 20 -20z m320 0 c0 -13 -7 -20 -20 -20 -13 0 -20 7
-20 20 0 13 7 20 20 20 13 0 20 -7 20 -20z m1440 0 c0 -23 -26 -38 -41 -23
-14 14 0 43 22 43 12 0 19 -7 19 -20z m1200 0 c0 -13 -7 -20 -20 -20 -13 0
-20 7 -20 20 0 13 7 20 20 20 13 0 20 -7 20 -20z m1193 14 c3 -4 2 -16 -4 -26
-13 -24 -35 -9 -26 16 7 17 19 21 30 10z m1131 -11 c-1 -7 -2 -42 -2 -78 -2
-48 -6 -65 -16 -65 -20 0 -26 23 -26 97 0 61 1 64 23 61 12 -2 22 -9 21 -15z
m996 -38 c0 -48 -2 -55 -20 -55 -18 0 -20 7 -20 55 0 48 2 55 20 55 18 0 20
-7 20 -55z m528 33 c5 -21 6 -21 13 -2 7 18 8 18 8 -2 1 -12 -6 -24 -14 -28
-11 -4 -15 -20 -15 -56 0 -43 -3 -50 -20 -50 -18 0 -20 7 -20 80 0 75 1 80 21
80 13 0 23 -8 27 -22z m326 16 c23 -9 20 -22 -6 -26 -20 -3 -23 -9 -24 -56 -2
-83 -14 -74 -14 11 0 80 4 86 44 71z m1186 -80 c0 -67 -2 -74 -20 -74 -18 0
-20 7 -20 73 0 78 4 89 26 80 10 -4 14 -25 14 -79z m-7680 21 c0 -19 -4 -23
-21 -20 -28 6 -28 6 -18 32 11 29 39 20 39 -12z m6583 -93 c-15 -2 -23 -10
-23 -23 0 -10 -5 -19 -11 -19 -6 0 -9 9 -6 23 3 12 9 48 12 79 5 41 12 58 24
60 13 3 17 -8 21 -57 5 -56 4 -60 -17 -63z m735 60 l3 -62 -40 3 c-23 1 -41 5
-41 10 0 4 6 7 13 7 6 0 4 5 -5 11 -28 16 -23 49 7 49 18 0 25 5 25 18 0 10 3
22 7 26 17 17 28 -5 31 -62z m-6678 38 c0 -17 7 -20 40 -20 33 0 40 -3 40 -20
0 -17 -7 -20 -40 -20 -33 0 -40 3 -40 20 0 13 -7 20 -20 20 -13 0 -20 7 -20
20 0 13 7 20 20 20 13 0 20 -7 20 -20z m3160 -39 c0 -50 -3 -59 -20 -64 -18
-5 -20 0 -20 59 0 57 2 64 20 64 18 0 20 -7 20 -59z m520 -1 c0 -53 -2 -60
-20 -60 -18 0 -20 7 -20 60 0 53 2 60 20 60 18 0 20 -7 20 -60z m64 54 c12 -5
16 -20 16 -60 0 -47 -2 -54 -20 -54 -18 0 -20 7 -20 60 0 33 2 60 4 60 2 0 11
-3 20 -6z m375 -68 c2 -40 -1 -46 -19 -46 -17 0 -20 6 -20 38 0 20 3 48 7 61
5 21 8 22 18 8 6 -9 12 -36 14 -61z m401 -8 c0 -31 -4 -38 -20 -38 -18 0 -20
7 -20 55 0 54 0 55 20 38 13 -12 20 -30 20 -55z m2756 9 c6 -39 4 -47 -10 -47
-13 0 -16 11 -16 57 0 68 16 62 26 -10z m-89 35 c7 -5 11 -41 11 -105 0 -89
-2 -97 -20 -97 -17 0 -19 6 -17 57 3 53 1 58 -19 61 -18 3 -22 10 -22 42 0 28
5 40 18 43 27 7 36 7 49 -1z m-7347 -22 c0 -13 -7 -20 -20 -20 -13 0 -20 7
-20 20 0 13 7 20 20 20 13 0 20 -7 20 -20z m3398 -43 c3 -52 1 -57 -18 -57
-18 0 -20 6 -20 61 0 52 2 60 18 57 13 -2 18 -15 20 -61z m1922 23 c0 -33 -3
-40 -20 -40 -17 0 -20 7 -20 40 0 33 3 40 20 40 17 0 20 -7 20 -40z m240 -60
c0 -93 -1 -100 -20 -100 -19 0 -20 7 -20 100 0 93 1 100 20 100 19 0 20 -7 20
-100z m686 69 c-3 -17 -6 -44 -6 -60 0 -22 -5 -29 -20 -29 -18 0 -20 7 -20 60
0 58 1 60 26 60 24 0 26 -3 20 -31z m314 -9 c0 -33 -3 -40 -20 -40 -17 0 -20
7 -20 40 0 33 3 40 20 40 17 0 20 -7 20 -40z m520 0 c0 -33 -3 -40 -19 -40
-13 0 -21 -8 -23 -22 -2 -13 -11 -24 -20 -26 -16 -3 -18 5 -18 62 l0 66 40 0
40 0 0 -40z m-2682 -18 c3 -17 -2 -22 -17 -22 -19 0 -21 -6 -21 -60 0 -45 -4
-60 -14 -60 -18 0 -26 22 -26 76 0 37 3 44 20 44 13 0 20 7 20 18 0 38 33 41
38 4z m2339 -9 c-3 -10 -5 -4 -5 12 0 17 2 24 5 18 2 -7 2 -21 0 -30z m-4387
17 c0 -5 -4 -10 -10 -10 -5 0 -10 5 -10 10 0 6 5 10 10 10 6 0 10 -4 10 -10z
m1640 -16 c0 -8 5 -14 10 -14 6 0 10 -9 10 -20 0 -15 -7 -20 -25 -20 -22 0
-25 -4 -25 -40 0 -33 -3 -40 -20 -40 -17 0 -20 7 -20 44 0 42 18 76 41 76 5 0
9 9 9 21 0 11 5 17 10 14 6 -3 10 -13 10 -21z m1450 -12 c0 -47 -2 -50 -40
-44 -26 4 -27 6 -15 19 8 8 15 25 15 39 0 17 5 24 20 24 17 0 20 -7 20 -38z
m-1936 12 c11 -4 16 -19 16 -50 0 -37 -3 -44 -20 -44 -15 0 -20 7 -20 25 0 14
-6 25 -13 25 -19 0 -18 38 1 43 9 3 18 5 19 6 1 0 8 -2 17 -5z m-1151 -23 c5
-22 0 -31 -20 -31 -8 0 -12 10 -11 25 3 30 23 33 31 6z m2447 -57 c0 -47 -2
-54 -20 -54 -16 0 -20 7 -21 38 -1 20 -2 44 -3 52 -1 15 23 31 37 23 4 -2 7
-29 7 -59z m434 16 c-7 -30 -8 -32 -21 -15 -17 24 -17 35 2 35 8 0 15 5 15 12
0 6 2 9 5 6 3 -3 2 -20 -1 -38z m813 3 c-3 -10 -5 -4 -5 12 0 17 2 24 5 18 2
-7 2 -21 0 -30z m-2327 -53 c0 -13 -7 -20 -19 -20 -14 0 -18 5 -14 20 3 11 12
20 19 20 8 0 14 -9 14 -20z m-4872 3 c-10 -2 -26 -2 -35 0 -10 3 -2 5 17 5 19
0 27 -2 18 -5z m149 1 c-3 -3 -12 -4 -19 -1 -8 3 -5 6 6 6 11 1 17 -2 13 -5z
m641 -1 c-38 -2 -98 -2 -135 0 -38 2 -7 3 67 3 74 0 105 -1 68 -3z m2359 1
c-3 -3 -12 -4 -19 -1 -8 3 -5 6 6 6 11 1 17 -2 13 -5z m3997 -9 c-4 -8 -10
-15 -15 -15 -5 0 -9 7 -9 15 0 8 7 15 15 15 9 0 12 -6 9 -15z"/>
<path d="M200 5060 c0 -13 7 -20 20 -20 13 0 20 7 20 20 0 13 -7 20 -20 20
-13 0 -20 -7 -20 -20z"/>
<path d="M530 3500 c0 -5 4 -10 9 -10 6 0 13 5 16 10 3 6 -1 10 -9 10 -9 0
-16 -4 -16 -10z"/>
<path d="M560 3425 c0 -18 5 -25 20 -25 13 0 20 -7 20 -20 0 -13 7 -20 20 -20
13 0 20 7 20 20 0 13 -7 20 -20 20 -13 0 -20 7 -20 19 0 10 -7 22 -16 25 -23
9 -24 8 -24 -19z"/>
<path d="M2003 2498 c2 -7 13 -13 25 -12 12 0 56 1 98 2 111 3 83 22 -32 22
-72 0 -95 -3 -91 -12z"/>
<path d="M2047 2234 c-15 -15 -7 -54 11 -55 9 -1 27 -3 40 -4 19 -2 22 3 22
29 0 29 -3 32 -33 34 -18 1 -36 -1 -40 -4z"/>
<path d="M1917 2113 c-4 -3 -7 -12 -7 -20 0 -10 38 -13 185 -13 178 0 185 1
185 20 0 19 -7 20 -178 20 -98 0 -182 -3 -185 -7z"/>
<path d="M2400 1236 c0 -9 5 -16 10 -16 6 0 10 4 10 9 0 6 -4 13 -10 16 -5 3
-10 -1 -10 -9z"/>
<path d="M3338 453 c34 -2 90 -2 125 0 34 2 6 3 -63 3 -69 0 -97 -1 -62 -3z"/>
<path d="M3793 453 c9 -2 23 -2 30 0 6 3 -1 5 -18 5 -16 0 -22 -2 -12 -5z"/>
<path d="M537 453 c18 -2 50 -2 70 0 21 2 7 4 -32 4 -38 0 -55 -2 -38 -4z"/>
<path d="M858 453 c34 -2 90 -2 125 0 34 2 6 3 -63 3 -69 0 -97 -1 -62 -3z"/>
<path d="M1298 453 c12 -2 32 -2 45 0 12 2 2 4 -23 4 -25 0 -35 -2 -22 -4z"/>
<path d="M2018 453 c12 -2 32 -2 45 0 12 2 2 4 -23 4 -25 0 -35 -2 -22 -4z"/>
<path d="M2498 453 c18 -2 45 -2 60 0 15 2 0 4 -33 4 -33 0 -45 -2 -27 -4z"/>
<path d="M2608 453 c6 -2 18 -2 25 0 6 3 1 5 -13 5 -14 0 -19 -2 -12 -5z"/>
<path d="M409 5758 c-7 -24 -5 -38 7 -38 8 0 14 9 14 20 0 11 -4 20 -10 20 -5
0 -10 -1 -11 -2z"/>
<path d="M450 5695 c0 -9 6 -12 15 -9 8 4 12 10 9 15 -8 14 -24 10 -24 -6z"/>
<path d="M560 5664 c0 -9 7 -14 17 -12 25 5 28 28 4 28 -12 0 -21 -6 -21 -16z"/>
<path d="M610 5620 c0 -11 5 -20 10 -20 6 0 10 9 10 20 0 11 -4 20 -10 20 -5
0 -10 -9 -10 -20z"/>
<path d="M520 5626 c0 -9 30 -14 35 -6 4 6 -3 10 -14 10 -12 0 -21 -2 -21 -4z"/>
<path d="M1255 5620 c3 -5 8 -10 11 -10 2 0 4 5 4 10 0 6 -5 10 -11 10 -5 0
-7 -4 -4 -10z"/>
<path d="M560 5586 c0 -15 24 -28 34 -19 13 14 5 33 -14 33 -11 0 -20 -6 -20
-14z"/>
<path d="M971 5564 c0 -11 3 -14 6 -6 3 7 2 16 -1 19 -3 4 -6 -2 -5 -13z"/>
<path d="M608 5543 c7 -3 16 -2 19 1 4 3 -2 6 -13 5 -11 0 -14 -3 -6 -6z"/>
<path d="M965 5520 c-3 -5 -1 -10 4 -10 6 0 11 5 11 10 0 6 -2 10 -4 10 -3 0
-8 -4 -11 -10z"/>
<path d="M990 5511 c0 -5 -8 -12 -17 -14 -14 -4 -12 -5 5 -6 13 -1 22 5 22 14
0 8 -2 15 -5 15 -3 0 -5 -4 -5 -9z"/>
<path d="M934 5466 c-8 -22 3 -33 18 -18 9 9 9 15 0 24 -9 9 -13 7 -18 -6z"/>
<path d="M1018 5463 c7 -3 16 -2 19 1 4 3 -2 6 -13 5 -11 0 -14 -3 -6 -6z"/>
<path d="M1200 5384 c0 -9 9 -18 20 -21 11 -3 20 -14 20 -24 0 -12 7 -19 20
-19 13 0 20 7 20 20 0 13 -7 20 -20 20 -13 0 -20 7 -20 20 0 13 -7 20 -20 20
-12 0 -20 -7 -20 -16z"/>
<path d="M1080 5260 c0 -14 7 -20 21 -20 12 0 23 -8 26 -19 3 -12 11 -17 19
-14 21 8 17 33 -6 33 -13 0 -20 7 -20 20 0 13 -7 20 -20 20 -13 0 -20 -7 -20
-20z"/>
<path d="M1170 5258 c0 -10 7 -18 15 -18 8 0 15 8 15 18 0 10 -7 19 -15 19 -8
0 -15 -9 -15 -19z"/>
<path d="M963 5235 c-3 -29 0 -35 18 -35 17 0 20 5 17 32 -4 47 -32 49 -35 3z"/>
<path d="M890 5230 c-13 -9 -13 -11 0 -20 10 -6 16 -6 18 0 7 20 -3 30 -18 20z"/>
<path d="M1210 5221 c0 -12 5 -21 10 -21 6 0 10 6 10 14 0 8 -4 18 -10 21 -5
3 -10 -3 -10 -14z"/>
<path d="M1007 5193 c-9 -8 4 -33 17 -33 16 0 16 28 0 34 -6 2 -14 2 -17 -1z"/>
<path d="M1160 5181 c0 -11 3 -27 6 -36 5 -13 8 -14 15 -3 14 22 10 58 -6 58
-8 0 -15 -9 -15 -19z"/>
<path d="M1360 5100 c0 -13 7 -20 20 -20 13 0 20 7 20 20 0 13 -7 20 -20 20
-13 0 -20 -7 -20 -20z"/>
<path d="M1285 5100 c3 -5 13 -10 21 -10 8 0 14 5 14 10 0 6 -9 10 -21 10 -11
0 -17 -4 -14 -10z"/>
<path d="M1360 4984 c0 -9 9 -18 20 -21 11 -3 20 -14 20 -24 0 -12 7 -19 20
-19 13 0 20 7 20 20 0 13 -7 20 -20 20 -13 0 -20 7 -20 20 0 13 -7 20 -20 20
-12 0 -20 -7 -20 -16z"/>
<path d="M1720 4900 c0 -13 7 -20 20 -20 13 0 20 7 20 20 0 13 -7 20 -20 20
-13 0 -20 -7 -20 -20z"/>
<path d="M1122 4828 c5 -15 28 -18 29 -3 0 6 -7 12 -17 13 -10 3 -15 -1 -12
-10z"/>
<path d="M1320 4740 c0 -13 7 -20 20 -20 13 0 20 7 20 20 0 13 -7 20 -20 20
-13 0 -20 -7 -20 -20z"/>
<path d="M1082 4703 c5 -26 38 -29 38 -4 0 15 -6 21 -21 21 -14 0 -19 -5 -17
-17z"/>
<path d="M1126 4672 c-8 -13 11 -35 23 -28 16 10 14 36 -3 36 -8 0 -17 -4 -20
-8z"/>
<path d="M1453 4673 c-7 -3 -13 -12 -13 -21 0 -15 2 -15 10 -2 6 10 10 11 10
3 0 -7 5 -13 10 -13 12 0 14 27 3 33 -5 2 -14 2 -20 0z"/>
<path d="M2040 4660 c0 -13 7 -20 20 -20 13 0 20 7 20 20 0 13 -7 20 -20 20
-13 0 -20 -7 -20 -20z"/>
<path d="M1171 4628 c-1 -10 6 -18 14 -18 8 0 15 5 15 11 0 5 -4 8 -9 5 -5 -4
-12 0 -14 6 -3 8 -6 6 -6 -4z"/>
<path d="M1880 4544 c0 -9 9 -18 20 -21 15 -4 20 -14 20 -38 0 -21 6 -35 16
-39 23 -9 24 -8 24 18 0 35 -10 56 -26 56 -8 0 -14 9 -14 20 0 13 -7 20 -20
20 -12 0 -20 -7 -20 -16z"/>
<path d="M1490 4540 c0 -5 7 -10 15 -10 8 0 15 5 15 10 0 6 -7 10 -15 10 -8 0
-15 -4 -15 -10z"/>
<path d="M1520 4500 c0 -13 7 -20 19 -20 10 0 21 -9 24 -20 3 -11 10 -20 15
-20 5 0 12 9 15 20 4 16 14 20 46 20 34 0 41 3 41 20 0 17 -7 20 -40 20 -33 0
-40 -3 -40 -20 0 -13 -7 -20 -20 -20 -13 0 -20 7 -20 20 0 13 -7 20 -20 20
-13 0 -20 -7 -20 -20z"/>
<path d="M1844 4503 c2 -10 9 -18 17 -18 20 0 17 29 -3 33 -11 2 -16 -3 -14
-15z"/>
<path d="M1687 4465 c-7 -15 1 -25 20 -25 7 0 13 6 13 14 0 19 -27 28 -33 11z"/>
<path d="M1772 4421 c4 -13 18 -16 19 -4 0 4 -5 9 -11 12 -7 2 -11 -2 -8 -8z"/>
<path d="M1973 4415 c0 -9 4 -14 9 -13 5 2 10 8 10 13 0 5 -5 11 -10 13 -5 1
-9 -4 -9 -13z"/>
<path d="M1810 4383 c0 -7 7 -13 15 -13 8 0 15 6 15 13 0 8 -7 14 -15 14 -8 0
-15 -6 -15 -14z"/>
<path d="M2006 4378 c1 -13 3 -29 3 -35 1 -7 8 -13 16 -13 12 0 15 9 13 35 -1
25 -7 35 -18 35 -11 0 -16 -7 -14 -22z"/>
<path d="M1857 4353 c-13 -13 -7 -32 8 -27 8 4 15 12 15 20 0 15 -12 19 -23 7z"/>
<path d="M1330 4300 c0 -6 7 -10 15 -10 8 0 15 2 15 4 0 2 -7 6 -15 10 -8 3
-15 1 -15 -4z"/>
<path d="M1810 4300 c0 -5 5 -10 11 -10 5 0 7 5 4 10 -3 6 -8 10 -11 10 -2 0
-4 -4 -4 -10z"/>
<path d="M2290 4136 c0 -19 4 -24 15 -19 18 6 16 34 -2 41 -8 2 -13 -6 -13
-22z"/>
<path d="M1567 4118 c-7 -25 -1 -38 18 -38 19 0 27 17 20 40 -8 27 -31 25 -38
-2z"/>
<path d="M2317 4100 c-4 -16 0 -20 19 -20 23 0 24 -3 24 -60 0 -53 2 -60 20
-60 18 0 20 7 20 60 0 53 -2 60 -20 60 -13 0 -20 7 -20 20 0 13 -7 20 -19 20
-10 0 -21 -9 -24 -20z"/>
<path d="M1690 4065 c0 -8 5 -15 10 -15 6 0 10 7 10 15 0 8 -4 15 -10 15 -5 0
-10 -7 -10 -15z"/>
<path d="M1800 4060 c8 -14 21 -20 45 -20 28 0 35 4 35 20 0 17 -7 20 -45 20
-43 0 -45 -1 -35 -20z"/>
<path d="M2210 4060 c0 -13 5 -20 13 -17 6 2 12 10 12 17 0 7 -6 15 -12 18 -8
2 -13 -5 -13 -18z"/>
<path d="M1607 3953 c-16 -15 -6 -33 18 -33 28 0 34 24 9 34 -19 7 -19 7 -27
-1z"/>
<path d="M2215 3900 c-3 -5 1 -10 10 -10 9 0 13 5 10 10 -3 6 -8 10 -10 10 -2
0 -7 -4 -10 -10z"/>
<path d="M1920 3820 c0 -11 7 -20 15 -20 8 0 21 -16 29 -35 8 -19 18 -35 21
-35 3 0 3 5 0 10 -3 6 -1 10 4 10 6 0 11 11 11 25 0 18 -5 25 -20 25 -13 0
-20 7 -20 20 0 13 -7 20 -20 20 -13 0 -20 -7 -20 -20z"/>
<path d="M2202 3778 c2 -13 10 -23 18 -23 8 0 16 10 18 23 3 17 -2 22 -18 22
-16 0 -21 -5 -18 -22z"/>
<path d="M1937 3713 c-3 -5 1 -14 9 -21 12 -10 14 -10 14 2 0 17 -16 30 -23
19z"/>
<path d="M2160 3706 c0 -7 9 -16 20 -19 26 -7 27 -47 2 -47 -11 0 -19 -7 -19
-16 0 -9 9 -19 19 -22 10 -2 18 -10 18 -17 0 -14 25 -27 34 -18 13 14 5 33
-14 33 -13 0 -20 7 -20 20 0 13 7 20 20 20 26 0 26 30 1 37 -11 3 -21 13 -24
24 -6 22 -37 26 -37 5z"/>
<path d="M2122 3660 c0 -14 2 -19 5 -12 2 6 2 18 0 25 -3 6 -5 1 -5 -13z"/>
<path d="M1896 3615 c-3 -8 -1 -15 4 -15 6 0 10 7 10 15 0 8 -2 15 -4 15 -2 0
-6 -7 -10 -15z"/>
<path d="M1921 3600 c-1 -26 -4 -31 -11 -20 -8 13 -10 13 -10 -2 0 -9 -5 -18
-11 -20 -5 -2 -7 -11 -4 -20 4 -11 18 -16 41 -15 l34 1 0 53 c0 29 -4 53 -10
53 -5 0 -10 -8 -11 -17 0 -15 -2 -15 -9 2 -7 16 -9 14 -9 -15z"/>
<path d="M2045 3580 c-3 -5 0 -10 8 -10 8 0 22 -11 31 -25 19 -28 36 -33 36
-9 0 9 -9 18 -20 21 -11 3 -20 12 -20 19 0 16 -26 19 -35 4z"/>
<path d="M2288 3543 c6 -2 18 -2 25 0 6 3 1 5 -13 5 -14 0 -19 -2 -12 -5z"/>
<path d="M2140 3499 c0 -5 -5 -7 -11 -4 -7 5 -9 -3 -7 -21 4 -42 33 -38 34 4
1 17 -3 32 -7 32 -5 0 -9 -5 -9 -11z"/>
<path d="M2322 3458 c6 -18 28 -21 28 -4 0 9 -7 16 -16 16 -9 0 -14 -5 -12
-12z"/>
<path d="M2095 3274 c-21 -21 -19 -33 5 -27 16 4 20 0 20 -21 0 -19 5 -26 20
-26 16 0 20 7 20 33 0 26 -6 36 -25 45 -19 9 -27 8 -40 -4z"/>
<path d="M2520 3221 c0 -14 6 -19 20 -18 12 1 20 8 20 19 0 11 -7 18 -20 18
-13 0 -20 -7 -20 -19z"/>
<path d="M2893 3233 c-15 -5 -5 -33 12 -33 7 0 12 7 11 15 -3 19 -8 23 -23 18z"/>
<path d="M2920 2980 c0 -18 6 -20 40 -18 44 2 54 22 18 32 -42 11 -58 7 -58
-14z"/>
<path d="M2685 2869 c-11 -16 4 -59 20 -59 10 0 15 11 15 35 0 35 -20 49 -35
24z"/>
<path d="M3003 2843 c-8 -19 4 -43 22 -43 10 0 15 10 15 28 0 30 -27 41 -37
15z"/>
<path d="M2800 2760 c0 -33 3 -40 20 -40 17 0 20 -7 20 -41 0 -32 3 -40 17
-37 17 3 37 54 27 70 -3 4 -14 8 -24 8 -14 0 -20 10 -25 40 -4 25 -12 40 -21
40 -10 0 -14 -12 -14 -40z"/>
<path d="M3063 2793 c-18 -7 -16 -40 2 -40 9 0 15 10 15 24 0 13 -1 23 -2 22
-2 0 -9 -3 -15 -6z"/>
<path d="M2938 2743 c7 -3 16 -2 19 1 4 3 -2 6 -13 5 -11 0 -14 -3 -6 -6z"/>
<path d="M2730 2700 c0 -5 7 -7 15 -4 8 4 15 8 15 10 0 2 -7 4 -15 4 -8 0 -15
-4 -15 -10z"/>
<path d="M3320 2535 c0 -8 6 -15 14 -15 8 0 16 7 20 15 4 10 -1 15 -14 15 -11
0 -20 -7 -20 -15z"/>
<path d="M6720 1746 c0 -22 19 -25 187 -25 224 0 210 2 216 -21 7 -26 37 -26
37 -1 0 13 -8 21 -22 23 -16 2 -22 9 -20 21 3 16 -12 17 -198 17 -164 0 -200
-2 -200 -14z"/>
<path d="M6640 1699 c0 -19 4 -21 32 -15 39 8 47 15 28 26 -28 18 -60 12 -60
-11z"/>
<path d="M6600 1660 c0 -15 5 -20 18 -18 9 2 17 10 17 18 0 8 -8 16 -17 18
-13 2 -18 -3 -18 -18z"/>
<path d="M7170 1660 c0 -11 7 -20 15 -20 8 0 15 9 15 20 0 11 -7 20 -15 20 -8
0 -15 -9 -15 -20z"/>
<path d="M6562 1618 c2 -13 8 -23 13 -23 6 0 11 10 13 23 2 15 -2 22 -13 22
-11 0 -15 -7 -13 -22z"/>
<path d="M6791 1631 c-25 -16 11 -25 107 -27 84 -2 92 0 92 17 0 17 -9 19 -92
19 -51 0 -99 -4 -107 -9z"/>
<path d="M7207 1620 c-4 -15 0 -20 13 -20 18 0 34 23 23 34 -13 12 -31 5 -36
-14z"/>
<path d="M6520 1461 c0 -134 1 -141 20 -141 17 0 20 -7 20 -41 0 -56 14 -79
50 -79 23 0 30 -4 30 -20 0 -14 7 -20 24 -20 19 0 23 -4 19 -20 -4 -15 0 -20
15 -20 31 0 36 29 7 42 -14 6 -25 17 -25 25 0 7 -8 13 -19 13 -10 0 -21 9 -24
20 -3 11 -12 20 -21 20 -13 0 -16 12 -16 60 0 53 -2 60 -20 60 -18 0 -20 8
-22 117 -3 103 -5 118 -20 121 -16 3 -18 -9 -18 -137z"/>
<path d="M7240 1460 c0 -133 -1 -140 -20 -140 -21 0 -25 -16 -14 -57 11 -40
34 -28 34 17 0 33 3 40 20 40 19 0 20 7 20 140 0 133 -1 140 -20 140 -19 0
-20 -7 -20 -140z"/>
<path d="M7002 1578 c3 -7 14 -15 25 -18 14 -3 19 -12 18 -30 -2 -27 19 -49
47 -50 20 0 31 33 26 76 -3 28 -5 29 -62 32 -43 2 -57 0 -54 -10z"/>
<path d="M6887 1551 c-2 -3 -4 -21 -6 -38 -2 -32 -2 -33 38 -33 34 0 41 -3 41
-20 0 -13 -7 -20 -20 -20 -13 0 -20 -7 -20 -20 0 -13 -7 -20 -20 -20 -13 0
-20 -7 -20 -20 0 -17 7 -20 41 -20 37 0 41 2 36 21 -4 15 0 23 14 26 10 3 19
11 19 18 0 7 11 16 25 19 42 11 31 36 -15 36 -40 0 -40 0 -40 40 0 39 -1 39
-35 38 -20 -1 -37 -4 -38 -7z"/>
<path d="M6811 1467 c-15 -19 -4 -27 35 -27 39 0 52 15 25 29 -27 15 -46 14
-60 -2z"/>
<path d="M6880 1300 c0 -17 7 -20 40 -20 33 0 40 3 40 20 0 17 -7 20 -40 20
-33 0 -40 -3 -40 -20z"/>
<path d="M7170 1220 c0 -13 -7 -20 -20 -20 -11 0 -20 -2 -20 -4 0 -2 -3 -11
-6 -19 -4 -11 4 -15 35 -15 l41 -1 0 40 c0 28 -4 39 -15 39 -8 0 -15 -9 -15
-20z"/>
<path d="M7080 1140 c-10 -19 -18 -20 -163 -16 -162 6 -197 2 -197 -20 0 -10
15 -14 53 -16 260 -7 307 -4 307 18 0 8 7 15 15 15 8 1 20 3 25 4 6 1 13 3 17
4 8 1 -29 30 -39 31 -4 0 -12 -9 -18 -20z"/>
<path d="M123 853 c71 -2 183 -2 250 0 67 1 10 3 -128 3 -137 0 -192 -2 -122
-3z"/>
<path d="M538 853 c12 -2 30 -2 40 0 9 3 -1 5 -23 4 -22 0 -30 -2 -17 -4z"/>
<path d="M608 853 c7 -3 16 -2 19 1 4 3 -2 6 -13 5 -11 0 -14 -3 -6 -6z"/>
<path d="M7 453 c7 -2 19 -2 26 0 6 3 1 5 -13 5 -14 0 -19 -2 -13 -5z"/>
<path d="M588 53 c12 -2 30 -2 40 0 9 3 -1 5 -23 4 -22 0 -30 -2 -17 -4z"/>
<path d="M1358 23 c6 -2 18 -2 25 0 6 3 1 5 -13 5 -14 0 -19 -2 -12 -5z"/>
<path d="M1308 13 c6 -2 18 -2 25 0 6 3 1 5 -13 5 -14 0 -19 -2 -12 -5z"/>
</g>
</svg>
